<?xml version="1.0" encoding="UTF-8"?>
<!-- Generated by Pixelmator Pro 3.6.18 -->
<svg width="128" height="128" viewBox="0 0 128 128" xmlns="http://www.w3.org/2000/svg">
    <path id="Path" fill="#ffffff" stroke="none" d="M 0 0 L 0.540344 0 L 0.540344 128 L 0 128 Z"/>
    <path id="path1" fill="#b92d32" stroke="none" d="M 0.540344 0 L 3.2 0 L 3.2 128 L 0.540344 128 Z"/>
    <path id="path2" fill="#3f3b93" stroke="none" d="M 3.2 0 L 3.794633 0 L 3.794633 128 L 3.2 128 Z"/>
    <path id="path3" fill="#ffffff" stroke="none" d="M 3.794633 0 L 5.05197 0 L 5.05197 128 L 3.794633 128 Z"/>
    <path id="path4" fill="#b92d32" stroke="none" d="M 5.05197 0 L 6.4 0 L 6.4 128 L 5.05197 128 Z"/>
    <path id="path5" fill="#f8e83a" stroke="none" d="M 6.4 0 L 7.480924 0 L 7.480924 128 L 6.4 128 Z"/>
    <path id="path6" fill="#3f3b93" stroke="none" d="M 7.480924 0 L 8.519076 0 L 8.519076 128 L 7.480924 128 Z"/>
    <path id="path7" fill="#e03e32" stroke="none" d="M 8.519076 0 L 9.599999 0 L 9.599999 128 L 8.519076 128 Z"/>
    <path id="path8" fill="#e03e32" stroke="none" d="M 9.599999 0 L 11.835826 0 L 11.835826 128 L 9.599999 128 Z"/>
    <path id="path9" fill="#ffffff" stroke="none" d="M 11.835826 0 L 12.149037 0 L 12.149037 128 L 11.835826 128 Z"/>
    <path id="path10" fill="#000000" stroke="none" d="M 12.149037 0 L 12.8 0 L 12.8 128 L 12.149037 128 Z"/>
    <path id="path11" fill="#046a03" stroke="none" d="M 12.8 0 L 14.082826 0 L 14.082826 128 L 12.8 128 Z"/>
    <path id="path12" fill="#ffffff" stroke="none" d="M 14.082826 0 L 14.718187 0 L 14.718187 128 L 14.082826 128 Z"/>
    <path id="path13" fill="#b92d32" stroke="none" d="M 14.718187 0 L 15.906458 0 L 15.906458 128 L 14.718187 128 Z"/>
    <path id="path14" fill="#f8e83a" stroke="none" d="M 15.906458 0 L 16 0 L 16 128 L 15.906458 128 Z"/>
    <path id="path15" fill="#ffffff" stroke="none" d="M 16 0 L 17.910229 0 L 17.910229 128 L 16 128 Z"/>
    <path id="path16" fill="#f8e83a" stroke="none" d="M 17.910229 0 L 17.959644 0 L 17.959644 128 L 17.910229 128 Z"/>
    <path id="path17" fill="#eda331" stroke="none" d="M 17.959644 0 L 18.026176 0 L 18.026176 128 L 17.959644 128 Z"/>
    <path id="path18" fill="#3f3b93" stroke="none" d="M 18.026176 0 L 19.199999 0 L 19.199999 128 L 18.026176 128 Z"/>
    <path id="path19" fill="#24b53d" stroke="none" d="M 19.199999 0 L 20.264662 0 L 20.264662 128 L 19.199999 128 Z"/>
    <path id="path20" fill="#ffffff" stroke="none" d="M 20.264662 0 L 21.329323 0 L 21.329323 128 L 20.264662 128 Z"/>
    <path id="path21" fill="#0193cd" stroke="none" d="M 21.329323 0 L 22.4 0 L 22.4 128 L 21.329323 128 Z"/>
    <path id="path22" fill="#b92d32" stroke="none" d="M 22.4 0 L 24.084164 0 L 24.084164 128 L 22.4 128 Z"/>
    <path id="path23" fill="#b92d32" stroke="none" d="M 24.084164 0 L 24.129204 0 L 24.129204 128 L 24.084164 128 Z"/>
    <path id="path24" fill="#eda331" stroke="none" d="M 24.129204 0 L 25.6 0 L 25.6 128 L 24.129204 128 Z"/>
    <path id="path25" fill="#3f3b93" stroke="none" d="M 25.6 0 L 26.510252 0 L 26.510252 128 L 25.6 128 Z"/>
    <path id="path26" fill="#b92d32" stroke="none" d="M 26.510252 0 L 27.717024 0 L 27.717024 128 L 26.510252 128 Z"/>
    <path id="path27" fill="#ffffff" stroke="none" d="M 27.717024 0 L 28.800001 0 L 28.800001 128 L 27.717024 128 Z"/>
    <path id="path28" fill="#0193cd" stroke="none" d="M 28.800001 0 L 31.830505 0 L 31.830505 128 L 28.800001 128 Z"/>
    <path id="path29" fill="#ffffff" stroke="none" d="M 31.830505 0 L 32 0 L 32 128 L 31.830505 128 Z"/>
    <path id="path30" fill="#b92d32" stroke="none" d="M 32 0 L 32.63208 0 L 32.63208 128 L 32 128 Z"/>
    <path id="path31" fill="#ffffff" stroke="none" d="M 32.63208 0 L 32.709526 0 L 32.709526 128 L 32.63208 128 Z"/>
    <path id="path32" fill="#046a03" stroke="none" d="M 32.709526 0 L 34.156227 0 L 34.156227 128 L 32.709526 128 Z"/>
    <path id="path33" fill="#f8e83a" stroke="none" d="M 34.156227 0 L 35.200001 0 L 35.200001 128 L 34.156227 128 Z"/>
    <path id="path34" fill="#e03e32" stroke="none" d="M 35.200001 0 L 37.762501 0 L 37.762501 128 L 35.200001 128 Z"/>
    <path id="path35" fill="#ffffff" stroke="none" d="M 37.762501 0 L 38.399998 0 L 38.399998 128 L 37.762501 128 Z"/>
    <path id="path36" fill="#e03e32" stroke="none" d="M 38.399998 0 L 41.30801 0 L 41.30801 128 L 38.399998 128 Z"/>
    <path id="path37" fill="#ffffff" stroke="none" d="M 41.30801 0 L 41.600002 0 L 41.600002 128 L 41.30801 128 Z"/>
    <path id="path38" fill="#ffffff" stroke="none" d="M 41.600002 0 L 42.640003 0 L 42.640003 128 L 41.600002 128 Z"/>
    <path id="path39" fill="#3f3b93" stroke="none" d="M 42.640003 0 L 43.718002 0 L 43.718002 128 L 42.640003 128 Z"/>
    <path id="path40" fill="#e03e32" stroke="none" d="M 43.718002 0 L 44.799999 0 L 44.799999 128 L 43.718002 128 Z"/>
    <path id="path41" fill="#3f3b93" stroke="none" d="M 44.799999 0 L 47.040001 0 L 47.040001 128 L 44.799999 128 Z"/>
    <path id="path42" fill="#f8e83a" stroke="none" d="M 47.040001 0 L 48 0 L 48 128 L 47.040001 128 Z"/>
    <path id="path43" fill="#ffffff" stroke="none" d="M 48 0 L 49.084747 0 L 49.084747 128 L 48 128 Z"/>
    <path id="path44" fill="#3f3b93" stroke="none" d="M 49.084747 0 L 49.944965 0 L 49.944965 128 L 49.084747 128 Z"/>
    <path id="path45" fill="#e03e32" stroke="none" d="M 49.944965 0 L 51.200001 0 L 51.200001 128 L 49.944965 128 Z"/>
    <path id="path46" fill="#000000" stroke="none" d="M 51.200001 0 L 51.487888 0 L 51.487888 128 L 51.200001 128 Z"/>
    <path id="path47" fill="#eda331" stroke="none" d="M 51.487888 0 L 51.657066 0 L 51.657066 128 L 51.487888 128 Z"/>
    <path id="path48" fill="#046a03" stroke="none" d="M 51.657066 0 L 52.657894 0 L 52.657894 128 L 51.657066 128 Z"/>
    <path id="path49" fill="#ffffff" stroke="none" d="M 52.657894 0 L 53.041462 0 L 53.041462 128 L 52.657894 128 Z"/>
    <path id="path50" fill="#e03e32" stroke="none" d="M 53.041462 0 L 53.721066 0 L 53.721066 128 L 53.041462 128 Z"/>
    <path id="path51" fill="#3f3b93" stroke="none" d="M 53.721066 0 L 54.399998 0 L 54.399998 128 L 53.721066 128 Z"/>
    <path id="path52" fill="#046a03" stroke="none" d="M 54.399998 0 L 56.814976 0 L 56.814976 128 L 54.399998 128 Z"/>
    <path id="path53" fill="#e03e32" stroke="none" d="M 56.814976 0 L 57.059776 0 L 57.059776 128 L 56.814976 128 Z"/>
    <path id="path54" fill="#000000" stroke="none" d="M 57.059776 0 L 57.304752 0 L 57.304752 128 L 57.059776 128 Z"/>
    <path id="path55" fill="#eda331" stroke="none" d="M 57.304752 0 L 57.600002 0 L 57.600002 128 L 57.304752 128 Z"/>
    <path id="path56" fill="#046a03" stroke="none" d="M 57.600002 0 L 58.470779 0 L 58.470779 128 L 57.600002 128 Z"/>
    <path id="path57" fill="#f8e83a" stroke="none" d="M 58.470779 0 L 59.269447 0 L 59.269447 128 L 58.470779 128 Z"/>
    <path id="path58" fill="#e03e32" stroke="none" d="M 59.269447 0 L 59.994305 0 L 59.994305 128 L 59.269447 128 Z"/>
    <path id="path59" fill="#000000" stroke="none" d="M 59.994305 0 L 60.359638 0 L 60.359638 128 L 59.994305 128 Z"/>
    <path id="path60" fill="#ffffff" stroke="none" d="M 60.359638 0 L 60.799999 0 L 60.799999 128 L 60.359638 128 Z"/>
    <path id="path61" fill="#0193cd" stroke="none" d="M 60.799999 0 L 61.442951 0 L 61.442951 128 L 60.799999 128 Z"/>
    <path id="path62" fill="#f8e83a" stroke="none" d="M 61.442951 0 L 61.49049 0 L 61.49049 128 L 61.442951 128 Z"/>
    <path id="path63" fill="#000000" stroke="none" d="M 61.49049 0 L 62.328468 0 L 62.328468 128 L 61.49049 128 Z"/>
    <path id="path64" fill="#ffffff" stroke="none" d="M 62.328468 0 L 62.560707 0 L 62.560707 128 L 62.328468 128 Z"/>
    <path id="path65" fill="#e03e32" stroke="none" d="M 62.560707 0 L 63.16201 0 L 63.16201 128 L 62.560707 128 Z"/>
    <path id="path66" fill="#24b53d" stroke="none" d="M 63.16201 0 L 64 0 L 64 128 L 63.16201 128 Z"/>
    <path id="path67" fill="#046a03" stroke="none" d="M 64 0 L 64.532738 0 L 64.532738 128 L 64 128 Z"/>
    <path id="path68" fill="#e03e32" stroke="none" d="M 64.532738 0 L 65.483551 0 L 65.483551 128 L 64.532738 128 Z"/>
    <path id="path69" fill="#ffffff" stroke="none" d="M 65.483551 0 L 66.249191 0 L 66.249191 128 L 65.483551 128 Z"/>
    <path id="path70" fill="#000000" stroke="none" d="M 66.249191 0 L 67.200005 0 L 67.200005 128 L 66.249191 128 Z"/>
    <path id="path71" fill="#3f3b93" stroke="none" d="M 67.200005 0 L 68.799995 0 L 68.799995 128 L 67.200005 128 Z"/>
    <path id="path72" fill="#f8e83a" stroke="none" d="M 68.799995 0 L 70.400002 0 L 70.400002 128 L 68.799995 128 Z"/>
    <path id="path73" fill="#000000" stroke="none" d="M 70.400002 0 L 71.405167 0 L 71.405167 128 L 70.400002 128 Z"/>
    <path id="path74" fill="#f8e83a" stroke="none" d="M 71.405167 0 L 72.480194 0 L 72.480194 128 L 71.405167 128 Z"/>
    <path id="path75" fill="#e03e32" stroke="none" d="M 72.480194 0 L 73.477966 0 L 73.477966 128 L 72.480194 128 Z"/>
    <path id="path76" fill="#ffffff" stroke="none" d="M 73.477966 0 L 73.599998 0 L 73.599998 128 L 73.477966 128 Z"/>
    <path id="path77" fill="#24b53d" stroke="none" d="M 73.599998 0 L 74.535614 0 L 74.535614 128 L 73.599998 128 Z"/>
    <path id="path78" fill="#f8e83a" stroke="none" d="M 74.535614 0 L 74.907272 0 L 74.907272 128 L 74.535614 128 Z"/>
    <path id="path79" fill="#000000" stroke="none" d="M 74.907272 0 L 75.865921 0 L 75.865921 128 L 74.907272 128 Z"/>
    <path id="path80" fill="#0193cd" stroke="none" d="M 75.865921 0 L 76.799995 0 L 76.799995 128 L 75.865921 128 Z"/>
    <path id="path81" fill="#e03e32" stroke="none" d="M 76.799995 0 L 79.813431 0 L 79.813431 128 L 76.799995 128 Z"/>
    <path id="path82" fill="#ffffff" stroke="none" d="M 79.813431 0 L 80 0 L 80 128 L 79.813431 128 Z"/>
    <path id="path83" fill="#b92d32" stroke="none" d="M 80 0 L 81.067848 0 L 81.067848 128 L 80 128 Z"/>
    <path id="path84" fill="#ffffff" stroke="none" d="M 81.067848 0 L 82.038246 0 L 82.038246 128 L 81.067848 128 Z"/>
    <path id="path85" fill="#046a03" stroke="none" d="M 82.038246 0 L 82.126122 0 L 82.126122 128 L 82.038246 128 Z"/>
    <path id="path86" fill="#000000" stroke="none" d="M 82.126122 0 L 83.200005 0 L 83.200005 128 L 82.126122 128 Z"/>
    <path id="path87" fill="#0193cd" stroke="none" d="M 83.200005 0 L 86.264297 0 L 86.264297 128 L 83.200005 128 Z"/>
    <path id="path88" fill="#ffffff" stroke="none" d="M 86.264297 0 L 86.400002 0 L 86.400002 128 L 86.264297 128 Z"/>
    <path id="path89" fill="#e03e32" stroke="none" d="M 86.400002 0 L 87.464661 0 L 87.464661 128 L 86.400002 128 Z"/>
    <path id="path90" fill="#ffffff" stroke="none" d="M 87.464661 0 L 88.529327 0 L 88.529327 128 L 87.464661 128 Z"/>
    <path id="path91" fill="#000000" stroke="none" d="M 88.529327 0 L 89.599998 0 L 89.599998 128 L 88.529327 128 Z"/>
    <path id="path92" fill="#e03e32" stroke="none" d="M 89.599998 0 L 90.403015 0 L 90.403015 128 L 89.599998 128 Z"/>
    <path id="path93" fill="#046a03" stroke="none" d="M 90.403015 0 L 91.20401 0 L 91.20401 128 L 90.403015 128 Z"/>
    <path id="path94" fill="#ffffff" stroke="none" d="M 91.20401 0 L 91.998993 0 L 91.998993 128 L 91.20401 128 Z"/>
    <path id="path95" fill="#000000" stroke="none" d="M 91.998993 0 L 92.799995 0 L 92.799995 128 L 91.998993 128 Z"/>
    <path id="path96" fill="#046a03" stroke="none" d="M 92.799995 0 L 95.605072 0 L 95.605072 128 L 92.799995 128 Z"/>
    <path id="path97" fill="#e03e32" stroke="none" d="M 95.605072 0 L 95.878815 0 L 95.878815 128 L 95.605072 128 Z"/>
    <path id="path98" fill="#f8e83a" stroke="none" d="M 95.878815 0 L 95.956963 0 L 95.956963 128 L 95.878815 128 Z"/>
    <path id="path99" fill="#ffffff" stroke="none" d="M 95.956963 0 L 96 0 L 96 128 L 95.956963 128 Z"/>
    <path id="path100" fill="#0193cd" stroke="none" d="M 96 0 L 96.993774 0 L 96.993774 128 L 96 128 Z"/>
    <path id="path101" fill="#b92d32" stroke="none" d="M 96.993774 0 L 97.122322 0 L 97.122322 128 L 96.993774 128 Z"/>
    <path id="path102" fill="#ffffff" stroke="none" d="M 97.122322 0 L 98.171722 0 L 98.171722 128 L 97.122322 128 Z"/>
    <path id="path103" fill="#24b53d" stroke="none" d="M 98.171722 0 L 99.200005 0 L 99.200005 128 L 98.171722 128 Z"/>
    <path id="path104" fill="#e03e32" stroke="none" d="M 99.200005 0 L 100.122353 0 L 100.122353 128 L 99.200005 128 Z"/>
    <path id="path105" fill="#ffffff" stroke="none" d="M 100.122353 0 L 101.436562 0 L 101.436562 128 L 100.122353 128 Z"/>
    <path id="path106" fill="#f8e83a" stroke="none" d="M 101.436562 0 L 101.477654 0 L 101.477654 128 L 101.436562 128 Z"/>
    <path id="path107" fill="#046a03" stroke="none" d="M 101.477654 0 L 102.400002 0 L 102.400002 128 L 101.477654 128 Z"/>
    <path id="path108" fill="#eda331" stroke="none" d="M 102.400002 0 L 103.848228 0 L 103.848228 128 L 102.400002 128 Z"/>
    <path id="path109" fill="#046a03" stroke="none" d="M 103.848228 0 L 104.199959 0 L 104.199959 128 L 103.848228 128 Z"/>
    <path id="path110" fill="#eda331" stroke="none" d="M 104.199959 0 L 104.551674 0 L 104.551674 128 L 104.199959 128 Z"/>
    <path id="path111" fill="#b92d32" stroke="none" d="M 104.551674 0 L 105.599998 0 L 105.599998 128 L 104.551674 128 Z"/>
    <path id="path112" fill="#b92d32" stroke="none" d="M 105.599998 0 L 106.66465 0 L 106.66465 128 L 105.599998 128 Z"/>
    <path id="path113" fill="#ffffff" stroke="none" d="M 106.66465 0 L 107.729301 0 L 107.729301 128 L 106.66465 128 Z"/>
    <path id="path114" fill="#3f3b93" stroke="none" d="M 107.729301 0 L 108.799995 0 L 108.799995 128 L 107.729301 128 Z"/>
    <path id="path115" fill="#e03e32" stroke="none" d="M 108.799995 0 L 110.304382 0 L 110.304382 128 L 108.799995 128 Z"/>
    <path id="path116" fill="#ffffff" stroke="none" d="M 110.304382 0 L 112 0 L 112 128 L 110.304382 128 Z"/>
    <path id="path117" fill="#e03e32" stroke="none" d="M 112 0 L 114.98912 0 L 114.98912 128 L 112 128 Z"/>
    <path id="path118" fill="#f8e83a" stroke="none" d="M 114.98912 0 L 115.200005 0 L 115.200005 128 L 114.98912 128 Z"/>
    <path id="path119" fill="#000000" stroke="none" d="M 115.200005 0 L 115.679863 0 L 115.679863 128 L 115.200005 128 Z"/>
    <path id="path120" fill="#ffffff" stroke="none" d="M 115.679863 0 L 115.727127 0 L 115.727127 128 L 115.679863 128 Z"/>
    <path id="path121" fill="#f8e83a" stroke="none" d="M 115.727127 0 L 115.987617 0 L 115.987617 128 L 115.727127 128 Z"/>
    <path id="path122" fill="#e03e32" stroke="none" d="M 115.987617 0 L 118.400002 0 L 118.400002 128 L 115.987617 128 Z"/>
    <path id="path123" fill="#3f3b93" stroke="none" d="M 118.400002 0 L 119.754448 0 L 119.754448 128 L 118.400002 128 Z"/>
    <path id="path124" fill="#ffffff" stroke="none" d="M 119.754448 0 L 119.837128 0 L 119.837128 128 L 119.754448 128 Z"/>
    <path id="path125" fill="#f8e83a" stroke="none" d="M 119.837128 0 L 120.145378 0 L 120.145378 128 L 119.837128 128 Z"/>
    <path id="path126" fill="#046a03" stroke="none" d="M 120.145378 0 L 121.599998 0 L 121.599998 128 L 120.145378 128 Z"/>
    <path id="path127" fill="#000000" stroke="none" d="M 121.599998 0 L 122.452209 0 L 122.452209 128 L 121.599998 128 Z"/>
    <path id="path128" fill="#f8e83a" stroke="none" d="M 122.452209 0 L 122.770294 0 L 122.770294 128 L 122.452209 128 Z"/>
    <path id="path129" fill="#e03e32" stroke="none" d="M 122.770294 0 L 123.785149 0 L 123.785149 128 L 122.770294 128 Z"/>
    <path id="path130" fill="#24b53d" stroke="none" d="M 123.785149 0 L 124.799995 0 L 124.799995 128 L 123.785149 128 Z"/>
    <path id="path131" fill="#3f3b93" stroke="none" d="M 124.799995 0 L 125.022079 0 L 125.022079 128 L 124.799995 128 Z"/>
    <path id="path132" fill="#b92d32" stroke="none" d="M 125.022079 0 L 125.318954 0 L 125.318954 128 L 125.022079 128 Z"/>
    <path id="path133" fill="#ffffff" stroke="none" d="M 125.318954 0 L 125.582329 0 L 125.582329 128 L 125.318954 128 Z"/>
    <path id="path134" fill="#0193cd" stroke="none" d="M 125.582329 0 L 127.887108 0 L 127.887108 128 L 125.582329 128 Z"/>
    <path id="path135" fill="#f8e83a" stroke="none" d="M 127.887108 0 L 128 0 L 128 128 L 127.887108 128 Z"/>
</svg>
