<svg xmlns="http://www.w3.org/2000/svg" xmlns:xlink="http://www.w3.org/1999/xlink" width="1200" zoomAndPan="magnify" viewBox="0 0 900 899.99999" height="1200" preserveAspectRatio="xMidYMid meet" version="1.0"><defs><g/></defs><rect x="-90" width="1080" fill="#ffffff" y="-89.999999" height="1079.999988" fill-opacity="1"/><rect x="-90" width="1080" fill="#ffffff" y="-89.999999" height="1079.999988" fill-opacity="1"/><g fill="#000000" fill-opacity="1"><g transform="translate(294.507791, 866.731799)"><g><path d="M 9.546875 0 L 8.015625 0 L 8.015625 -5.921875 L 2.765625 -5.921875 L 2.765625 0 L 1.234375 0 L 1.234375 -12.796875 L 2.765625 -12.796875 L 2.765625 -7.296875 L 8.015625 -7.296875 L 8.015625 -12.796875 L 9.546875 -12.796875 Z M 9.546875 0 "/></g></g><g transform="translate(305.309549, 866.731799)"><g><path d="M 1.078125 -4.84375 C 1.078125 -5.53125 1.175781 -6.164062 1.375 -6.75 C 1.570312 -7.34375 1.851562 -7.851562 2.21875 -8.28125 C 2.59375 -8.71875 3.046875 -9.0625 3.578125 -9.3125 C 4.117188 -9.5625 4.722656 -9.6875 5.390625 -9.6875 C 6.066406 -9.6875 6.671875 -9.5625 7.203125 -9.3125 C 7.734375 -9.0625 8.1875 -8.71875 8.5625 -8.28125 C 8.9375 -7.851562 9.222656 -7.34375 9.421875 -6.75 C 9.617188 -6.164062 9.71875 -5.53125 9.71875 -4.84375 L 9.71875 -4.65625 C 9.71875 -3.96875 9.617188 -3.328125 9.421875 -2.734375 C 9.222656 -2.148438 8.9375 -1.640625 8.5625 -1.203125 C 8.1875 -0.773438 7.734375 -0.4375 7.203125 -0.1875 C 6.671875 0.0507812 6.070312 0.171875 5.40625 0.171875 C 4.726562 0.171875 4.117188 0.0507812 3.578125 -0.1875 C 3.046875 -0.4375 2.59375 -0.773438 2.21875 -1.203125 C 1.851562 -1.640625 1.570312 -2.148438 1.375 -2.734375 C 1.175781 -3.328125 1.078125 -3.96875 1.078125 -4.65625 Z M 2.703125 -4.65625 C 2.703125 -4.1875 2.753906 -3.738281 2.859375 -3.3125 C 2.972656 -2.882812 3.140625 -2.507812 3.359375 -2.1875 C 3.585938 -1.863281 3.875 -1.609375 4.21875 -1.421875 C 4.5625 -1.234375 4.957031 -1.140625 5.40625 -1.140625 C 5.851562 -1.140625 6.242188 -1.234375 6.578125 -1.421875 C 6.910156 -1.609375 7.191406 -1.863281 7.421875 -2.1875 C 7.648438 -2.507812 7.816406 -2.882812 7.921875 -3.3125 C 8.035156 -3.738281 8.09375 -4.1875 8.09375 -4.65625 L 8.09375 -4.84375 C 8.09375 -5.300781 8.035156 -5.742188 7.921875 -6.171875 C 7.804688 -6.597656 7.632812 -6.972656 7.40625 -7.296875 C 7.1875 -7.617188 6.90625 -7.875 6.5625 -8.0625 C 6.226562 -8.25 5.835938 -8.34375 5.390625 -8.34375 C 4.941406 -8.34375 4.546875 -8.25 4.203125 -8.0625 C 3.867188 -7.875 3.585938 -7.617188 3.359375 -7.296875 C 3.140625 -6.972656 2.972656 -6.597656 2.859375 -6.171875 C 2.753906 -5.742188 2.703125 -5.300781 2.703125 -4.84375 Z M 2.703125 -4.65625 "/></g></g><g transform="translate(316.111306, 866.731799)"><g><path d="M 7.84375 -2.515625 C 7.84375 -2.710938 7.804688 -2.890625 7.734375 -3.046875 C 7.660156 -3.203125 7.53125 -3.34375 7.34375 -3.46875 C 7.164062 -3.601562 6.925781 -3.722656 6.625 -3.828125 C 6.320312 -3.929688 5.953125 -4.03125 5.515625 -4.125 C 4.960938 -4.238281 4.460938 -4.375 4.015625 -4.53125 C 3.566406 -4.6875 3.179688 -4.875 2.859375 -5.09375 C 2.546875 -5.3125 2.300781 -5.566406 2.125 -5.859375 C 1.945312 -6.160156 1.859375 -6.507812 1.859375 -6.90625 C 1.859375 -7.289062 1.945312 -7.648438 2.125 -7.984375 C 2.3125 -8.316406 2.566406 -8.609375 2.890625 -8.859375 C 3.222656 -9.117188 3.613281 -9.320312 4.0625 -9.46875 C 4.519531 -9.613281 5.023438 -9.6875 5.578125 -9.6875 C 6.160156 -9.6875 6.6875 -9.609375 7.15625 -9.453125 C 7.625 -9.304688 8.019531 -9.097656 8.34375 -8.828125 C 8.675781 -8.554688 8.929688 -8.238281 9.109375 -7.875 C 9.285156 -7.519531 9.375 -7.132812 9.375 -6.71875 L 7.75 -6.71875 C 7.75 -6.914062 7.695312 -7.113281 7.59375 -7.3125 C 7.488281 -7.507812 7.34375 -7.679688 7.15625 -7.828125 C 6.96875 -7.984375 6.738281 -8.109375 6.46875 -8.203125 C 6.207031 -8.296875 5.910156 -8.34375 5.578125 -8.34375 C 5.222656 -8.34375 4.914062 -8.304688 4.65625 -8.234375 C 4.394531 -8.160156 4.175781 -8.054688 4 -7.921875 C 3.832031 -7.796875 3.703125 -7.644531 3.609375 -7.46875 C 3.523438 -7.300781 3.484375 -7.128906 3.484375 -6.953125 C 3.484375 -6.765625 3.519531 -6.597656 3.59375 -6.453125 C 3.664062 -6.304688 3.785156 -6.171875 3.953125 -6.046875 C 4.128906 -5.929688 4.363281 -5.828125 4.65625 -5.734375 C 4.945312 -5.640625 5.3125 -5.550781 5.75 -5.46875 C 6.34375 -5.34375 6.867188 -5.195312 7.328125 -5.03125 C 7.796875 -4.875 8.1875 -4.679688 8.5 -4.453125 C 8.8125 -4.234375 9.050781 -3.972656 9.21875 -3.671875 C 9.382812 -3.367188 9.46875 -3.023438 9.46875 -2.640625 C 9.46875 -2.210938 9.375 -1.828125 9.1875 -1.484375 C 9 -1.140625 8.734375 -0.84375 8.390625 -0.59375 C 8.054688 -0.351562 7.648438 -0.164062 7.171875 -0.03125 C 6.691406 0.101562 6.171875 0.171875 5.609375 0.171875 C 4.972656 0.171875 4.398438 0.0859375 3.890625 -0.078125 C 3.390625 -0.253906 2.960938 -0.484375 2.609375 -0.765625 C 2.265625 -1.054688 2 -1.390625 1.8125 -1.765625 C 1.625 -2.140625 1.53125 -2.523438 1.53125 -2.921875 L 3.171875 -2.921875 C 3.191406 -2.585938 3.28125 -2.304688 3.4375 -2.078125 C 3.59375 -1.847656 3.785156 -1.660156 4.015625 -1.515625 C 4.242188 -1.378906 4.5 -1.28125 4.78125 -1.21875 C 5.0625 -1.164062 5.335938 -1.140625 5.609375 -1.140625 C 6.296875 -1.140625 6.835938 -1.265625 7.234375 -1.515625 C 7.640625 -1.773438 7.84375 -2.109375 7.84375 -2.515625 Z M 7.84375 -2.515625 "/></g></g><g transform="translate(326.913063, 866.731799)"><g><path d="M 5.375 -11.8125 L 5.375 -9.515625 L 9 -9.515625 L 9 -8.25 L 5.375 -8.25 L 5.375 -3.078125 C 5.375 -2.710938 5.421875 -2.410156 5.515625 -2.171875 C 5.609375 -1.929688 5.738281 -1.738281 5.90625 -1.59375 C 6.070312 -1.445312 6.257812 -1.34375 6.46875 -1.28125 C 6.6875 -1.226562 6.914062 -1.203125 7.15625 -1.203125 C 7.332031 -1.203125 7.515625 -1.210938 7.703125 -1.234375 C 7.890625 -1.253906 8.070312 -1.28125 8.25 -1.3125 C 8.425781 -1.34375 8.59375 -1.375 8.75 -1.40625 C 8.90625 -1.4375 9.03125 -1.460938 9.125 -1.484375 L 9.359375 -0.328125 C 9.222656 -0.253906 9.054688 -0.1875 8.859375 -0.125 C 8.671875 -0.0625 8.460938 -0.0078125 8.234375 0.03125 C 8.003906 0.0820312 7.757812 0.117188 7.5 0.140625 C 7.25 0.160156 7 0.171875 6.75 0.171875 C 6.332031 0.171875 5.9375 0.113281 5.5625 0 C 5.195312 -0.125 4.878906 -0.316406 4.609375 -0.578125 C 4.335938 -0.835938 4.125 -1.171875 3.96875 -1.578125 C 3.820312 -1.992188 3.75 -2.492188 3.75 -3.078125 L 3.75 -8.25 L 1.25 -8.25 L 1.25 -9.515625 L 3.75 -9.515625 L 3.75 -11.8125 Z M 5.375 -11.8125 "/></g></g><g transform="translate(337.714821, 866.731799)"><g><path d="M 5.734375 0.171875 C 5.066406 0.171875 4.453125 0.0546875 3.890625 -0.171875 C 3.328125 -0.398438 2.847656 -0.71875 2.453125 -1.125 C 2.054688 -1.53125 1.742188 -2.015625 1.515625 -2.578125 C 1.296875 -3.140625 1.1875 -3.753906 1.1875 -4.421875 L 1.1875 -4.796875 C 1.1875 -5.554688 1.304688 -6.238281 1.546875 -6.84375 C 1.796875 -7.457031 2.125 -7.972656 2.53125 -8.390625 C 2.9375 -8.804688 3.398438 -9.125 3.921875 -9.34375 C 4.441406 -9.570312 4.972656 -9.6875 5.515625 -9.6875 C 6.203125 -9.6875 6.800781 -9.566406 7.3125 -9.328125 C 7.832031 -9.085938 8.257812 -8.757812 8.59375 -8.34375 C 8.9375 -7.925781 9.191406 -7.429688 9.359375 -6.859375 C 9.523438 -6.296875 9.609375 -5.679688 9.609375 -5.015625 L 9.609375 -4.296875 L 2.8125 -4.296875 C 2.832031 -3.859375 2.914062 -3.445312 3.0625 -3.0625 C 3.207031 -2.6875 3.410156 -2.351562 3.671875 -2.0625 C 3.929688 -1.78125 4.242188 -1.554688 4.609375 -1.390625 C 4.972656 -1.234375 5.375 -1.15625 5.8125 -1.15625 C 6.394531 -1.15625 6.910156 -1.269531 7.359375 -1.5 C 7.816406 -1.738281 8.191406 -2.050781 8.484375 -2.4375 L 9.484375 -1.65625 C 9.328125 -1.414062 9.128906 -1.1875 8.890625 -0.96875 C 8.648438 -0.75 8.375 -0.550781 8.0625 -0.375 C 7.757812 -0.207031 7.410156 -0.078125 7.015625 0.015625 C 6.617188 0.117188 6.191406 0.171875 5.734375 0.171875 Z M 5.515625 -8.34375 C 5.191406 -8.34375 4.882812 -8.28125 4.59375 -8.15625 C 4.300781 -8.039062 4.035156 -7.867188 3.796875 -7.640625 C 3.566406 -7.410156 3.367188 -7.125 3.203125 -6.78125 C 3.046875 -6.445312 2.929688 -6.0625 2.859375 -5.625 L 7.984375 -5.625 L 7.984375 -5.75 C 7.960938 -6.0625 7.898438 -6.375 7.796875 -6.6875 C 7.691406 -7 7.539062 -7.273438 7.34375 -7.515625 C 7.144531 -7.765625 6.894531 -7.960938 6.59375 -8.109375 C 6.289062 -8.265625 5.929688 -8.34375 5.515625 -8.34375 Z M 5.515625 -8.34375 "/></g></g><g transform="translate(348.516578, 866.731799)"><g><path d="M 1.21875 -4.828125 C 1.21875 -5.535156 1.304688 -6.1875 1.484375 -6.78125 C 1.671875 -7.382812 1.925781 -7.898438 2.25 -8.328125 C 2.582031 -8.753906 2.984375 -9.085938 3.453125 -9.328125 C 3.921875 -9.566406 4.445312 -9.6875 5.03125 -9.6875 C 5.59375 -9.6875 6.085938 -9.585938 6.515625 -9.390625 C 6.941406 -9.203125 7.3125 -8.925781 7.625 -8.5625 L 7.625 -13.5 L 9.25 -13.5 L 9.25 0 L 7.75 0 L 7.6875 -1 C 7.363281 -0.613281 6.984375 -0.320312 6.546875 -0.125 C 6.109375 0.0703125 5.597656 0.171875 5.015625 0.171875 C 4.441406 0.171875 3.921875 0.0507812 3.453125 -0.1875 C 2.984375 -0.4375 2.582031 -0.773438 2.25 -1.203125 C 1.925781 -1.640625 1.671875 -2.148438 1.484375 -2.734375 C 1.304688 -3.328125 1.21875 -3.96875 1.21875 -4.65625 Z M 2.84375 -4.65625 C 2.84375 -4.1875 2.890625 -3.742188 2.984375 -3.328125 C 3.085938 -2.910156 3.242188 -2.546875 3.453125 -2.234375 C 3.660156 -1.921875 3.925781 -1.671875 4.25 -1.484375 C 4.570312 -1.296875 4.960938 -1.203125 5.421875 -1.203125 C 5.691406 -1.203125 5.9375 -1.234375 6.15625 -1.296875 C 6.382812 -1.359375 6.585938 -1.453125 6.765625 -1.578125 C 6.953125 -1.703125 7.113281 -1.847656 7.25 -2.015625 C 7.394531 -2.179688 7.519531 -2.363281 7.625 -2.5625 L 7.625 -6.984375 C 7.40625 -7.367188 7.117188 -7.6875 6.765625 -7.9375 C 6.410156 -8.1875 5.96875 -8.3125 5.4375 -8.3125 C 4.976562 -8.3125 4.582031 -8.21875 4.25 -8.03125 C 3.925781 -7.84375 3.660156 -7.585938 3.453125 -7.265625 C 3.242188 -6.941406 3.085938 -6.570312 2.984375 -6.15625 C 2.890625 -5.738281 2.84375 -5.296875 2.84375 -4.828125 Z M 2.84375 -4.65625 "/></g></g><g transform="translate(359.318335, 866.731799)"><g/></g><g transform="translate(370.120092, 866.731799)"><g><path d="M 9.59375 -4.65625 C 9.59375 -3.96875 9.507812 -3.328125 9.34375 -2.734375 C 9.175781 -2.148438 8.929688 -1.640625 8.609375 -1.203125 C 8.296875 -0.773438 7.90625 -0.4375 7.4375 -0.1875 C 6.976562 0.0507812 6.445312 0.171875 5.84375 0.171875 C 5.238281 0.171875 4.710938 0.0664062 4.265625 -0.140625 C 3.816406 -0.359375 3.429688 -0.671875 3.109375 -1.078125 L 3.03125 0 L 1.53125 0 L 1.53125 -13.5 L 3.171875 -13.5 L 3.171875 -8.484375 C 3.472656 -8.878906 3.84375 -9.175781 4.28125 -9.375 C 4.726562 -9.582031 5.242188 -9.6875 5.828125 -9.6875 C 6.429688 -9.6875 6.96875 -9.566406 7.4375 -9.328125 C 7.90625 -9.085938 8.296875 -8.753906 8.609375 -8.328125 C 8.929688 -7.898438 9.175781 -7.382812 9.34375 -6.78125 C 9.507812 -6.1875 9.59375 -5.535156 9.59375 -4.828125 Z M 7.96875 -4.828125 C 7.96875 -5.296875 7.921875 -5.738281 7.828125 -6.15625 C 7.734375 -6.570312 7.585938 -6.941406 7.390625 -7.265625 C 7.191406 -7.585938 6.929688 -7.84375 6.609375 -8.03125 C 6.285156 -8.21875 5.890625 -8.3125 5.421875 -8.3125 C 5.140625 -8.3125 4.878906 -8.273438 4.640625 -8.203125 C 4.410156 -8.128906 4.203125 -8.023438 4.015625 -7.890625 C 3.835938 -7.753906 3.675781 -7.597656 3.53125 -7.421875 C 3.382812 -7.242188 3.265625 -7.050781 3.171875 -6.84375 L 3.171875 -2.6875 C 3.273438 -2.46875 3.394531 -2.269531 3.53125 -2.09375 C 3.675781 -1.914062 3.84375 -1.757812 4.03125 -1.625 C 4.21875 -1.488281 4.425781 -1.382812 4.65625 -1.3125 C 4.894531 -1.238281 5.15625 -1.203125 5.4375 -1.203125 C 5.882812 -1.203125 6.265625 -1.296875 6.578125 -1.484375 C 6.898438 -1.671875 7.160156 -1.921875 7.359375 -2.234375 C 7.566406 -2.546875 7.71875 -2.910156 7.8125 -3.328125 C 7.914062 -3.742188 7.96875 -4.1875 7.96875 -4.65625 Z M 7.96875 -4.828125 "/></g></g><g transform="translate(380.92185, 866.731799)"><g><path d="M 5.03125 -3.375 L 5.453125 -2.21875 L 8.34375 -9.515625 L 10.171875 -9.515625 L 5.34375 1.46875 C 5.226562 1.71875 5.082031 1.976562 4.90625 2.25 C 4.738281 2.519531 4.53125 2.769531 4.28125 3 C 4.039062 3.238281 3.753906 3.4375 3.421875 3.59375 C 3.097656 3.757812 2.722656 3.84375 2.296875 3.84375 C 2.222656 3.84375 2.140625 3.835938 2.046875 3.828125 C 1.953125 3.816406 1.859375 3.800781 1.765625 3.78125 C 1.671875 3.769531 1.582031 3.753906 1.5 3.734375 C 1.414062 3.722656 1.347656 3.710938 1.296875 3.703125 L 1.5625 2.375 C 1.601562 2.375 1.65625 2.375 1.71875 2.375 C 1.789062 2.382812 1.863281 2.390625 1.9375 2.390625 C 2.019531 2.398438 2.09375 2.40625 2.15625 2.40625 C 2.226562 2.414062 2.285156 2.421875 2.328125 2.421875 C 2.546875 2.421875 2.75 2.359375 2.9375 2.234375 C 3.125 2.109375 3.285156 1.957031 3.421875 1.78125 C 3.566406 1.613281 3.691406 1.441406 3.796875 1.265625 C 3.898438 1.085938 3.984375 0.9375 4.046875 0.8125 L 4.6875 -0.453125 L 0.59375 -9.515625 L 2.421875 -9.515625 Z M 5.03125 -3.375 "/></g></g><g transform="translate(391.723607, 866.731799)"><g/></g><g transform="translate(402.525364, 866.731799)"><g><path d="M 5.375 -11.8125 L 5.375 -9.515625 L 9 -9.515625 L 9 -8.25 L 5.375 -8.25 L 5.375 -3.078125 C 5.375 -2.710938 5.421875 -2.410156 5.515625 -2.171875 C 5.609375 -1.929688 5.738281 -1.738281 5.90625 -1.59375 C 6.070312 -1.445312 6.257812 -1.34375 6.46875 -1.28125 C 6.6875 -1.226562 6.914062 -1.203125 7.15625 -1.203125 C 7.332031 -1.203125 7.515625 -1.210938 7.703125 -1.234375 C 7.890625 -1.253906 8.070312 -1.28125 8.25 -1.3125 C 8.425781 -1.34375 8.59375 -1.375 8.75 -1.40625 C 8.90625 -1.4375 9.03125 -1.460938 9.125 -1.484375 L 9.359375 -0.328125 C 9.222656 -0.253906 9.054688 -0.1875 8.859375 -0.125 C 8.671875 -0.0625 8.460938 -0.0078125 8.234375 0.03125 C 8.003906 0.0820312 7.757812 0.117188 7.5 0.140625 C 7.25 0.160156 7 0.171875 6.75 0.171875 C 6.332031 0.171875 5.9375 0.113281 5.5625 0 C 5.195312 -0.125 4.878906 -0.316406 4.609375 -0.578125 C 4.335938 -0.835938 4.125 -1.171875 3.96875 -1.578125 C 3.820312 -1.992188 3.75 -2.492188 3.75 -3.078125 L 3.75 -8.25 L 1.25 -8.25 L 1.25 -9.515625 L 3.75 -9.515625 L 3.75 -11.8125 Z M 5.375 -11.8125 "/></g></g><g transform="translate(413.327122, 866.731799)"><g><path d="M 3.15625 -8.09375 C 3.5 -8.59375 3.914062 -8.976562 4.40625 -9.25 C 4.90625 -9.53125 5.46875 -9.675781 6.09375 -9.6875 C 6.59375 -9.6875 7.046875 -9.613281 7.453125 -9.46875 C 7.859375 -9.320312 8.203125 -9.097656 8.484375 -8.796875 C 8.773438 -8.492188 9 -8.109375 9.15625 -7.640625 C 9.3125 -7.171875 9.390625 -6.617188 9.390625 -5.984375 L 9.390625 0 L 7.765625 0 L 7.765625 -6 C 7.765625 -6.78125 7.578125 -7.359375 7.203125 -7.734375 C 6.828125 -8.117188 6.296875 -8.3125 5.609375 -8.3125 C 5.085938 -8.3125 4.613281 -8.179688 4.1875 -7.921875 C 3.757812 -7.671875 3.414062 -7.332031 3.15625 -6.90625 L 3.15625 0 L 1.53125 0 L 1.53125 -13.5 L 3.15625 -13.5 Z M 3.15625 -8.09375 "/></g></g><g transform="translate(424.128879, 866.731799)"><g><path d="M 5.734375 0.171875 C 5.066406 0.171875 4.453125 0.0546875 3.890625 -0.171875 C 3.328125 -0.398438 2.847656 -0.71875 2.453125 -1.125 C 2.054688 -1.53125 1.742188 -2.015625 1.515625 -2.578125 C 1.296875 -3.140625 1.1875 -3.753906 1.1875 -4.421875 L 1.1875 -4.796875 C 1.1875 -5.554688 1.304688 -6.238281 1.546875 -6.84375 C 1.796875 -7.457031 2.125 -7.972656 2.53125 -8.390625 C 2.9375 -8.804688 3.398438 -9.125 3.921875 -9.34375 C 4.441406 -9.570312 4.972656 -9.6875 5.515625 -9.6875 C 6.203125 -9.6875 6.800781 -9.566406 7.3125 -9.328125 C 7.832031 -9.085938 8.257812 -8.757812 8.59375 -8.34375 C 8.9375 -7.925781 9.191406 -7.429688 9.359375 -6.859375 C 9.523438 -6.296875 9.609375 -5.679688 9.609375 -5.015625 L 9.609375 -4.296875 L 2.8125 -4.296875 C 2.832031 -3.859375 2.914062 -3.445312 3.0625 -3.0625 C 3.207031 -2.6875 3.410156 -2.351562 3.671875 -2.0625 C 3.929688 -1.78125 4.242188 -1.554688 4.609375 -1.390625 C 4.972656 -1.234375 5.375 -1.15625 5.8125 -1.15625 C 6.394531 -1.15625 6.910156 -1.269531 7.359375 -1.5 C 7.816406 -1.738281 8.191406 -2.050781 8.484375 -2.4375 L 9.484375 -1.65625 C 9.328125 -1.414062 9.128906 -1.1875 8.890625 -0.96875 C 8.648438 -0.75 8.375 -0.550781 8.0625 -0.375 C 7.757812 -0.207031 7.410156 -0.078125 7.015625 0.015625 C 6.617188 0.117188 6.191406 0.171875 5.734375 0.171875 Z M 5.515625 -8.34375 C 5.191406 -8.34375 4.882812 -8.28125 4.59375 -8.15625 C 4.300781 -8.039062 4.035156 -7.867188 3.796875 -7.640625 C 3.566406 -7.410156 3.367188 -7.125 3.203125 -6.78125 C 3.046875 -6.445312 2.929688 -6.0625 2.859375 -5.625 L 7.984375 -5.625 L 7.984375 -5.75 C 7.960938 -6.0625 7.898438 -6.375 7.796875 -6.6875 C 7.691406 -7 7.539062 -7.273438 7.34375 -7.515625 C 7.144531 -7.765625 6.894531 -7.960938 6.59375 -8.109375 C 6.289062 -8.265625 5.929688 -8.34375 5.515625 -8.34375 Z M 5.515625 -8.34375 "/></g></g><g transform="translate(434.930636, 866.731799)"><g/></g><g transform="translate(445.732394, 866.731799)"><g><path d="M 8.234375 -3.234375 C 8.234375 -3.628906 8.140625 -3.957031 7.953125 -4.21875 C 7.773438 -4.488281 7.546875 -4.71875 7.265625 -4.90625 C 6.984375 -5.09375 6.675781 -5.25 6.34375 -5.375 C 6.007812 -5.5 5.6875 -5.609375 5.375 -5.703125 C 4.914062 -5.847656 4.453125 -6.023438 3.984375 -6.234375 C 3.523438 -6.441406 3.101562 -6.691406 2.71875 -6.984375 C 2.332031 -7.285156 2.019531 -7.640625 1.78125 -8.046875 C 1.539062 -8.453125 1.421875 -8.929688 1.421875 -9.484375 C 1.421875 -10.035156 1.539062 -10.523438 1.78125 -10.953125 C 2.019531 -11.390625 2.335938 -11.753906 2.734375 -12.046875 C 3.128906 -12.347656 3.570312 -12.578125 4.0625 -12.734375 C 4.5625 -12.890625 5.066406 -12.96875 5.578125 -12.96875 C 6.128906 -12.96875 6.660156 -12.875 7.171875 -12.6875 C 7.691406 -12.507812 8.148438 -12.253906 8.546875 -11.921875 C 8.953125 -11.585938 9.273438 -11.179688 9.515625 -10.703125 C 9.753906 -10.234375 9.878906 -9.703125 9.890625 -9.109375 L 8.21875 -9.109375 C 8.164062 -9.484375 8.070312 -9.820312 7.9375 -10.125 C 7.8125 -10.425781 7.632812 -10.679688 7.40625 -10.890625 C 7.1875 -11.109375 6.921875 -11.273438 6.609375 -11.390625 C 6.304688 -11.515625 5.960938 -11.578125 5.578125 -11.578125 C 5.265625 -11.578125 4.957031 -11.535156 4.65625 -11.453125 C 4.363281 -11.367188 4.101562 -11.238281 3.875 -11.0625 C 3.644531 -10.882812 3.457031 -10.664062 3.3125 -10.40625 C 3.175781 -10.144531 3.109375 -9.847656 3.109375 -9.515625 C 3.117188 -9.140625 3.210938 -8.820312 3.390625 -8.5625 C 3.578125 -8.3125 3.804688 -8.097656 4.078125 -7.921875 C 4.359375 -7.753906 4.660156 -7.609375 4.984375 -7.484375 C 5.304688 -7.367188 5.613281 -7.269531 5.90625 -7.1875 C 6.21875 -7.082031 6.535156 -6.96875 6.859375 -6.84375 C 7.179688 -6.71875 7.492188 -6.570312 7.796875 -6.40625 C 8.097656 -6.238281 8.375 -6.050781 8.625 -5.84375 C 8.882812 -5.644531 9.109375 -5.414062 9.296875 -5.15625 C 9.492188 -4.894531 9.644531 -4.609375 9.75 -4.296875 C 9.863281 -3.984375 9.921875 -3.632812 9.921875 -3.25 C 9.921875 -2.675781 9.789062 -2.175781 9.53125 -1.75 C 9.28125 -1.320312 8.953125 -0.960938 8.546875 -0.671875 C 8.148438 -0.390625 7.695312 -0.175781 7.1875 -0.03125 C 6.675781 0.101562 6.164062 0.171875 5.65625 0.171875 C 5.082031 0.171875 4.523438 0.0820312 3.984375 -0.09375 C 3.441406 -0.269531 2.953125 -0.519531 2.515625 -0.84375 C 2.085938 -1.175781 1.738281 -1.582031 1.46875 -2.0625 C 1.195312 -2.539062 1.050781 -3.082031 1.03125 -3.6875 L 2.703125 -3.6875 C 2.753906 -3.289062 2.859375 -2.9375 3.015625 -2.625 C 3.179688 -2.320312 3.394531 -2.0625 3.65625 -1.84375 C 3.914062 -1.632812 4.210938 -1.472656 4.546875 -1.359375 C 4.878906 -1.253906 5.25 -1.203125 5.65625 -1.203125 C 5.96875 -1.203125 6.273438 -1.238281 6.578125 -1.3125 C 6.890625 -1.394531 7.164062 -1.519531 7.40625 -1.6875 C 7.644531 -1.851562 7.84375 -2.0625 8 -2.3125 C 8.15625 -2.570312 8.234375 -2.878906 8.234375 -3.234375 Z M 8.234375 -3.234375 "/></g></g><g transform="translate(456.534151, 866.731799)"><g><path d="M 2.96875 -3.453125 L 3.171875 -2.078125 L 3.40625 -3.453125 L 4.921875 -9.515625 L 5.96875 -9.515625 L 7.484375 -3.453125 L 7.734375 -1.953125 L 7.96875 -3.453125 L 9.03125 -9.515625 L 10.46875 -9.515625 L 8.453125 0 L 7.15625 0 L 5.671875 -5.828125 L 5.4375 -7.296875 L 5.1875 -5.828125 L 3.734375 0 L 2.4375 0 L 0.421875 -9.515625 L 1.859375 -9.515625 Z M 2.96875 -3.453125 "/></g></g><g transform="translate(467.335908, 866.731799)"><g><path d="M 1.78125 -9.515625 L 6.640625 -9.515625 L 6.640625 -1.40625 L 9.75 -1.40625 L 9.75 0 L 1.78125 0 L 1.78125 -1.40625 L 5.015625 -1.40625 L 5.015625 -8.09375 L 1.78125 -8.09375 Z M 4.8125 -12 C 4.8125 -12.269531 4.890625 -12.5 5.046875 -12.6875 C 5.210938 -12.875 5.457031 -12.96875 5.78125 -12.96875 C 6.101562 -12.96875 6.347656 -12.875 6.515625 -12.6875 C 6.679688 -12.5 6.765625 -12.269531 6.765625 -12 C 6.765625 -11.738281 6.679688 -11.519531 6.515625 -11.34375 C 6.347656 -11.164062 6.101562 -11.078125 5.78125 -11.078125 C 5.457031 -11.078125 5.210938 -11.164062 5.046875 -11.34375 C 4.890625 -11.519531 4.8125 -11.738281 4.8125 -12 Z M 4.8125 -12 "/></g></g><g transform="translate(478.137666, 866.731799)"><g><path d="M 7.84375 -2.515625 C 7.84375 -2.710938 7.804688 -2.890625 7.734375 -3.046875 C 7.660156 -3.203125 7.53125 -3.34375 7.34375 -3.46875 C 7.164062 -3.601562 6.925781 -3.722656 6.625 -3.828125 C 6.320312 -3.929688 5.953125 -4.03125 5.515625 -4.125 C 4.960938 -4.238281 4.460938 -4.375 4.015625 -4.53125 C 3.566406 -4.6875 3.179688 -4.875 2.859375 -5.09375 C 2.546875 -5.3125 2.300781 -5.566406 2.125 -5.859375 C 1.945312 -6.160156 1.859375 -6.507812 1.859375 -6.90625 C 1.859375 -7.289062 1.945312 -7.648438 2.125 -7.984375 C 2.3125 -8.316406 2.566406 -8.609375 2.890625 -8.859375 C 3.222656 -9.117188 3.613281 -9.320312 4.0625 -9.46875 C 4.519531 -9.613281 5.023438 -9.6875 5.578125 -9.6875 C 6.160156 -9.6875 6.6875 -9.609375 7.15625 -9.453125 C 7.625 -9.304688 8.019531 -9.097656 8.34375 -8.828125 C 8.675781 -8.554688 8.929688 -8.238281 9.109375 -7.875 C 9.285156 -7.519531 9.375 -7.132812 9.375 -6.71875 L 7.75 -6.71875 C 7.75 -6.914062 7.695312 -7.113281 7.59375 -7.3125 C 7.488281 -7.507812 7.34375 -7.679688 7.15625 -7.828125 C 6.96875 -7.984375 6.738281 -8.109375 6.46875 -8.203125 C 6.207031 -8.296875 5.910156 -8.34375 5.578125 -8.34375 C 5.222656 -8.34375 4.914062 -8.304688 4.65625 -8.234375 C 4.394531 -8.160156 4.175781 -8.054688 4 -7.921875 C 3.832031 -7.796875 3.703125 -7.644531 3.609375 -7.46875 C 3.523438 -7.300781 3.484375 -7.128906 3.484375 -6.953125 C 3.484375 -6.765625 3.519531 -6.597656 3.59375 -6.453125 C 3.664062 -6.304688 3.785156 -6.171875 3.953125 -6.046875 C 4.128906 -5.929688 4.363281 -5.828125 4.65625 -5.734375 C 4.945312 -5.640625 5.3125 -5.550781 5.75 -5.46875 C 6.34375 -5.34375 6.867188 -5.195312 7.328125 -5.03125 C 7.796875 -4.875 8.1875 -4.679688 8.5 -4.453125 C 8.8125 -4.234375 9.050781 -3.972656 9.21875 -3.671875 C 9.382812 -3.367188 9.46875 -3.023438 9.46875 -2.640625 C 9.46875 -2.210938 9.375 -1.828125 9.1875 -1.484375 C 9 -1.140625 8.734375 -0.84375 8.390625 -0.59375 C 8.054688 -0.351562 7.648438 -0.164062 7.171875 -0.03125 C 6.691406 0.101562 6.171875 0.171875 5.609375 0.171875 C 4.972656 0.171875 4.398438 0.0859375 3.890625 -0.078125 C 3.390625 -0.253906 2.960938 -0.484375 2.609375 -0.765625 C 2.265625 -1.054688 2 -1.390625 1.8125 -1.765625 C 1.625 -2.140625 1.53125 -2.523438 1.53125 -2.921875 L 3.171875 -2.921875 C 3.191406 -2.585938 3.28125 -2.304688 3.4375 -2.078125 C 3.59375 -1.847656 3.785156 -1.660156 4.015625 -1.515625 C 4.242188 -1.378906 4.5 -1.28125 4.78125 -1.21875 C 5.0625 -1.164062 5.335938 -1.140625 5.609375 -1.140625 C 6.296875 -1.140625 6.835938 -1.265625 7.234375 -1.515625 C 7.640625 -1.773438 7.84375 -2.109375 7.84375 -2.515625 Z M 7.84375 -2.515625 "/></g></g><g transform="translate(488.939423, 866.731799)"><g><path d="M 7.84375 -2.515625 C 7.84375 -2.710938 7.804688 -2.890625 7.734375 -3.046875 C 7.660156 -3.203125 7.53125 -3.34375 7.34375 -3.46875 C 7.164062 -3.601562 6.925781 -3.722656 6.625 -3.828125 C 6.320312 -3.929688 5.953125 -4.03125 5.515625 -4.125 C 4.960938 -4.238281 4.460938 -4.375 4.015625 -4.53125 C 3.566406 -4.6875 3.179688 -4.875 2.859375 -5.09375 C 2.546875 -5.3125 2.300781 -5.566406 2.125 -5.859375 C 1.945312 -6.160156 1.859375 -6.507812 1.859375 -6.90625 C 1.859375 -7.289062 1.945312 -7.648438 2.125 -7.984375 C 2.3125 -8.316406 2.566406 -8.609375 2.890625 -8.859375 C 3.222656 -9.117188 3.613281 -9.320312 4.0625 -9.46875 C 4.519531 -9.613281 5.023438 -9.6875 5.578125 -9.6875 C 6.160156 -9.6875 6.6875 -9.609375 7.15625 -9.453125 C 7.625 -9.304688 8.019531 -9.097656 8.34375 -8.828125 C 8.675781 -8.554688 8.929688 -8.238281 9.109375 -7.875 C 9.285156 -7.519531 9.375 -7.132812 9.375 -6.71875 L 7.75 -6.71875 C 7.75 -6.914062 7.695312 -7.113281 7.59375 -7.3125 C 7.488281 -7.507812 7.34375 -7.679688 7.15625 -7.828125 C 6.96875 -7.984375 6.738281 -8.109375 6.46875 -8.203125 C 6.207031 -8.296875 5.910156 -8.34375 5.578125 -8.34375 C 5.222656 -8.34375 4.914062 -8.304688 4.65625 -8.234375 C 4.394531 -8.160156 4.175781 -8.054688 4 -7.921875 C 3.832031 -7.796875 3.703125 -7.644531 3.609375 -7.46875 C 3.523438 -7.300781 3.484375 -7.128906 3.484375 -6.953125 C 3.484375 -6.765625 3.519531 -6.597656 3.59375 -6.453125 C 3.664062 -6.304688 3.785156 -6.171875 3.953125 -6.046875 C 4.128906 -5.929688 4.363281 -5.828125 4.65625 -5.734375 C 4.945312 -5.640625 5.3125 -5.550781 5.75 -5.46875 C 6.34375 -5.34375 6.867188 -5.195312 7.328125 -5.03125 C 7.796875 -4.875 8.1875 -4.679688 8.5 -4.453125 C 8.8125 -4.234375 9.050781 -3.972656 9.21875 -3.671875 C 9.382812 -3.367188 9.46875 -3.023438 9.46875 -2.640625 C 9.46875 -2.210938 9.375 -1.828125 9.1875 -1.484375 C 9 -1.140625 8.734375 -0.84375 8.390625 -0.59375 C 8.054688 -0.351562 7.648438 -0.164062 7.171875 -0.03125 C 6.691406 0.101562 6.171875 0.171875 5.609375 0.171875 C 4.972656 0.171875 4.398438 0.0859375 3.890625 -0.078125 C 3.390625 -0.253906 2.960938 -0.484375 2.609375 -0.765625 C 2.265625 -1.054688 2 -1.390625 1.8125 -1.765625 C 1.625 -2.140625 1.53125 -2.523438 1.53125 -2.921875 L 3.171875 -2.921875 C 3.191406 -2.585938 3.28125 -2.304688 3.4375 -2.078125 C 3.59375 -1.847656 3.785156 -1.660156 4.015625 -1.515625 C 4.242188 -1.378906 4.5 -1.28125 4.78125 -1.21875 C 5.0625 -1.164062 5.335938 -1.140625 5.609375 -1.140625 C 6.296875 -1.140625 6.835938 -1.265625 7.234375 -1.515625 C 7.640625 -1.773438 7.84375 -2.109375 7.84375 -2.515625 Z M 7.84375 -2.515625 "/></g></g><g transform="translate(499.74118, 866.731799)"><g/></g><g transform="translate(510.542938, 866.731799)"><g><path d="M 9.8125 -3.84375 C 9.738281 -3.257812 9.585938 -2.71875 9.359375 -2.21875 C 9.128906 -1.726562 8.832031 -1.300781 8.46875 -0.9375 C 8.101562 -0.582031 7.671875 -0.304688 7.171875 -0.109375 C 6.671875 0.078125 6.113281 0.171875 5.5 0.171875 C 4.96875 0.171875 4.484375 0.0976562 4.046875 -0.046875 C 3.617188 -0.191406 3.238281 -0.394531 2.90625 -0.65625 C 2.570312 -0.925781 2.28125 -1.238281 2.03125 -1.59375 C 1.789062 -1.957031 1.585938 -2.347656 1.421875 -2.765625 C 1.265625 -3.191406 1.144531 -3.632812 1.0625 -4.09375 C 0.988281 -4.5625 0.945312 -5.03125 0.9375 -5.5 L 0.9375 -7.28125 C 0.945312 -7.757812 0.988281 -8.226562 1.0625 -8.6875 C 1.144531 -9.15625 1.265625 -9.597656 1.421875 -10.015625 C 1.585938 -10.441406 1.789062 -10.832031 2.03125 -11.1875 C 2.28125 -11.550781 2.570312 -11.863281 2.90625 -12.125 C 3.238281 -12.394531 3.617188 -12.601562 4.046875 -12.75 C 4.472656 -12.894531 4.957031 -12.96875 5.5 -12.96875 C 6.132812 -12.96875 6.703125 -12.867188 7.203125 -12.671875 C 7.710938 -12.484375 8.144531 -12.207031 8.5 -11.84375 C 8.863281 -11.476562 9.15625 -11.046875 9.375 -10.546875 C 9.601562 -10.046875 9.75 -9.488281 9.8125 -8.875 L 8.1875 -8.875 C 8.132812 -9.257812 8.039062 -9.617188 7.90625 -9.953125 C 7.78125 -10.285156 7.609375 -10.578125 7.390625 -10.828125 C 7.179688 -11.085938 6.921875 -11.285156 6.609375 -11.421875 C 6.296875 -11.566406 5.925781 -11.640625 5.5 -11.640625 C 5.101562 -11.640625 4.757812 -11.578125 4.46875 -11.453125 C 4.175781 -11.328125 3.921875 -11.15625 3.703125 -10.9375 C 3.492188 -10.726562 3.316406 -10.476562 3.171875 -10.1875 C 3.023438 -9.894531 2.90625 -9.585938 2.8125 -9.265625 C 2.726562 -8.953125 2.664062 -8.625 2.625 -8.28125 C 2.59375 -7.945312 2.578125 -7.617188 2.578125 -7.296875 L 2.578125 -5.5 C 2.578125 -5.1875 2.59375 -4.859375 2.625 -4.515625 C 2.664062 -4.179688 2.726562 -3.851562 2.8125 -3.53125 C 2.90625 -3.207031 3.019531 -2.898438 3.15625 -2.609375 C 3.300781 -2.328125 3.484375 -2.070312 3.703125 -1.84375 C 3.921875 -1.625 4.175781 -1.453125 4.46875 -1.328125 C 4.757812 -1.203125 5.101562 -1.140625 5.5 -1.140625 C 5.925781 -1.140625 6.296875 -1.207031 6.609375 -1.34375 C 6.921875 -1.476562 7.179688 -1.664062 7.390625 -1.90625 C 7.609375 -2.15625 7.78125 -2.441406 7.90625 -2.765625 C 8.039062 -3.097656 8.132812 -3.457031 8.1875 -3.84375 Z M 9.8125 -3.84375 "/></g></g><g transform="translate(521.344695, 866.731799)"><g><path d="M 1.078125 -4.84375 C 1.078125 -5.53125 1.175781 -6.164062 1.375 -6.75 C 1.570312 -7.34375 1.851562 -7.851562 2.21875 -8.28125 C 2.59375 -8.71875 3.046875 -9.0625 3.578125 -9.3125 C 4.117188 -9.5625 4.722656 -9.6875 5.390625 -9.6875 C 6.066406 -9.6875 6.671875 -9.5625 7.203125 -9.3125 C 7.734375 -9.0625 8.1875 -8.71875 8.5625 -8.28125 C 8.9375 -7.851562 9.222656 -7.34375 9.421875 -6.75 C 9.617188 -6.164062 9.71875 -5.53125 9.71875 -4.84375 L 9.71875 -4.65625 C 9.71875 -3.96875 9.617188 -3.328125 9.421875 -2.734375 C 9.222656 -2.148438 8.9375 -1.640625 8.5625 -1.203125 C 8.1875 -0.773438 7.734375 -0.4375 7.203125 -0.1875 C 6.671875 0.0507812 6.070312 0.171875 5.40625 0.171875 C 4.726562 0.171875 4.117188 0.0507812 3.578125 -0.1875 C 3.046875 -0.4375 2.59375 -0.773438 2.21875 -1.203125 C 1.851562 -1.640625 1.570312 -2.148438 1.375 -2.734375 C 1.175781 -3.328125 1.078125 -3.96875 1.078125 -4.65625 Z M 2.703125 -4.65625 C 2.703125 -4.1875 2.753906 -3.738281 2.859375 -3.3125 C 2.972656 -2.882812 3.140625 -2.507812 3.359375 -2.1875 C 3.585938 -1.863281 3.875 -1.609375 4.21875 -1.421875 C 4.5625 -1.234375 4.957031 -1.140625 5.40625 -1.140625 C 5.851562 -1.140625 6.242188 -1.234375 6.578125 -1.421875 C 6.910156 -1.609375 7.191406 -1.863281 7.421875 -2.1875 C 7.648438 -2.507812 7.816406 -2.882812 7.921875 -3.3125 C 8.035156 -3.738281 8.09375 -4.1875 8.09375 -4.65625 L 8.09375 -4.84375 C 8.09375 -5.300781 8.035156 -5.742188 7.921875 -6.171875 C 7.804688 -6.597656 7.632812 -6.972656 7.40625 -7.296875 C 7.1875 -7.617188 6.90625 -7.875 6.5625 -8.0625 C 6.226562 -8.25 5.835938 -8.34375 5.390625 -8.34375 C 4.941406 -8.34375 4.546875 -8.25 4.203125 -8.0625 C 3.867188 -7.875 3.585938 -7.617188 3.359375 -7.296875 C 3.140625 -6.972656 2.972656 -6.597656 2.859375 -6.171875 C 2.753906 -5.742188 2.703125 -5.300781 2.703125 -4.84375 Z M 2.703125 -4.65625 "/></g></g><g transform="translate(532.146452, 866.731799)"><g><path d="M 2.984375 -9.515625 L 3.109375 -8.109375 C 3.453125 -8.597656 3.875 -8.976562 4.375 -9.25 C 4.882812 -9.53125 5.445312 -9.675781 6.0625 -9.6875 C 6.5625 -9.6875 7.015625 -9.613281 7.421875 -9.46875 C 7.828125 -9.332031 8.171875 -9.113281 8.453125 -8.8125 C 8.742188 -8.519531 8.96875 -8.140625 9.125 -7.671875 C 9.28125 -7.210938 9.359375 -6.664062 9.359375 -6.03125 L 9.359375 0 L 7.734375 0 L 7.734375 -6 C 7.734375 -6.425781 7.6875 -6.785156 7.59375 -7.078125 C 7.5 -7.367188 7.359375 -7.601562 7.171875 -7.78125 C 6.992188 -7.96875 6.769531 -8.101562 6.5 -8.1875 C 6.226562 -8.269531 5.921875 -8.3125 5.578125 -8.3125 C 5.035156 -8.3125 4.554688 -8.171875 4.140625 -7.890625 C 3.734375 -7.617188 3.40625 -7.265625 3.15625 -6.828125 L 3.15625 0 L 1.53125 0 L 1.53125 -9.515625 Z M 2.984375 -9.515625 "/></g></g><g transform="translate(542.94821, 866.731799)"><g><path d="M 3.953125 0 L 3.953125 -8.25 L 1.34375 -8.25 L 1.34375 -9.515625 L 3.953125 -9.515625 L 3.953125 -10.171875 C 3.953125 -10.785156 4.039062 -11.320312 4.21875 -11.78125 C 4.394531 -12.238281 4.644531 -12.625 4.96875 -12.9375 C 5.300781 -13.25 5.695312 -13.484375 6.15625 -13.640625 C 6.613281 -13.796875 7.125 -13.875 7.6875 -13.875 C 8.070312 -13.875 8.445312 -13.84375 8.8125 -13.78125 C 9.175781 -13.71875 9.550781 -13.632812 9.9375 -13.53125 L 9.75 -12.1875 C 9.507812 -12.269531 9.226562 -12.34375 8.90625 -12.40625 C 8.582031 -12.46875 8.242188 -12.5 7.890625 -12.5 C 7.117188 -12.488281 6.539062 -12.289062 6.15625 -11.90625 C 5.78125 -11.53125 5.59375 -10.953125 5.59375 -10.171875 L 5.59375 -9.515625 L 9.25 -9.515625 L 9.25 -8.25 L 5.59375 -8.25 L 5.59375 0 Z M 3.953125 0 "/></g></g><g transform="translate(553.758756, 866.731799)"><g><path d="M 5.734375 0.171875 C 5.066406 0.171875 4.453125 0.0546875 3.890625 -0.171875 C 3.328125 -0.398438 2.847656 -0.71875 2.453125 -1.125 C 2.054688 -1.53125 1.742188 -2.015625 1.515625 -2.578125 C 1.296875 -3.140625 1.1875 -3.753906 1.1875 -4.421875 L 1.1875 -4.796875 C 1.1875 -5.554688 1.304688 -6.238281 1.546875 -6.84375 C 1.796875 -7.457031 2.125 -7.972656 2.53125 -8.390625 C 2.9375 -8.804688 3.398438 -9.125 3.921875 -9.34375 C 4.441406 -9.570312 4.972656 -9.6875 5.515625 -9.6875 C 6.203125 -9.6875 6.800781 -9.566406 7.3125 -9.328125 C 7.832031 -9.085938 8.257812 -8.757812 8.59375 -8.34375 C 8.9375 -7.925781 9.191406 -7.429688 9.359375 -6.859375 C 9.523438 -6.296875 9.609375 -5.679688 9.609375 -5.015625 L 9.609375 -4.296875 L 2.8125 -4.296875 C 2.832031 -3.859375 2.914062 -3.445312 3.0625 -3.0625 C 3.207031 -2.6875 3.410156 -2.351562 3.671875 -2.0625 C 3.929688 -1.78125 4.242188 -1.554688 4.609375 -1.390625 C 4.972656 -1.234375 5.375 -1.15625 5.8125 -1.15625 C 6.394531 -1.15625 6.910156 -1.269531 7.359375 -1.5 C 7.816406 -1.738281 8.191406 -2.050781 8.484375 -2.4375 L 9.484375 -1.65625 C 9.328125 -1.414062 9.128906 -1.1875 8.890625 -0.96875 C 8.648438 -0.75 8.375 -0.550781 8.0625 -0.375 C 7.757812 -0.207031 7.410156 -0.078125 7.015625 0.015625 C 6.617188 0.117188 6.191406 0.171875 5.734375 0.171875 Z M 5.515625 -8.34375 C 5.191406 -8.34375 4.882812 -8.28125 4.59375 -8.15625 C 4.300781 -8.039062 4.035156 -7.867188 3.796875 -7.640625 C 3.566406 -7.410156 3.367188 -7.125 3.203125 -6.78125 C 3.046875 -6.445312 2.929688 -6.0625 2.859375 -5.625 L 7.984375 -5.625 L 7.984375 -5.75 C 7.960938 -6.0625 7.898438 -6.375 7.796875 -6.6875 C 7.691406 -7 7.539062 -7.273438 7.34375 -7.515625 C 7.144531 -7.765625 6.894531 -7.960938 6.59375 -8.109375 C 6.289062 -8.265625 5.929688 -8.34375 5.515625 -8.34375 Z M 5.515625 -8.34375 "/></g></g><g transform="translate(564.560513, 866.731799)"><g><path d="M 1.21875 -4.828125 C 1.21875 -5.535156 1.304688 -6.1875 1.484375 -6.78125 C 1.671875 -7.382812 1.925781 -7.898438 2.25 -8.328125 C 2.582031 -8.753906 2.984375 -9.085938 3.453125 -9.328125 C 3.921875 -9.566406 4.445312 -9.6875 5.03125 -9.6875 C 5.59375 -9.6875 6.085938 -9.585938 6.515625 -9.390625 C 6.941406 -9.203125 7.3125 -8.925781 7.625 -8.5625 L 7.625 -13.5 L 9.25 -13.5 L 9.25 0 L 7.75 0 L 7.6875 -1 C 7.363281 -0.613281 6.984375 -0.320312 6.546875 -0.125 C 6.109375 0.0703125 5.597656 0.171875 5.015625 0.171875 C 4.441406 0.171875 3.921875 0.0507812 3.453125 -0.1875 C 2.984375 -0.4375 2.582031 -0.773438 2.25 -1.203125 C 1.925781 -1.640625 1.671875 -2.148438 1.484375 -2.734375 C 1.304688 -3.328125 1.21875 -3.96875 1.21875 -4.65625 Z M 2.84375 -4.65625 C 2.84375 -4.1875 2.890625 -3.742188 2.984375 -3.328125 C 3.085938 -2.910156 3.242188 -2.546875 3.453125 -2.234375 C 3.660156 -1.921875 3.925781 -1.671875 4.25 -1.484375 C 4.570312 -1.296875 4.960938 -1.203125 5.421875 -1.203125 C 5.691406 -1.203125 5.9375 -1.234375 6.15625 -1.296875 C 6.382812 -1.359375 6.585938 -1.453125 6.765625 -1.578125 C 6.953125 -1.703125 7.113281 -1.847656 7.25 -2.015625 C 7.394531 -2.179688 7.519531 -2.363281 7.625 -2.5625 L 7.625 -6.984375 C 7.40625 -7.367188 7.117188 -7.6875 6.765625 -7.9375 C 6.410156 -8.1875 5.96875 -8.3125 5.4375 -8.3125 C 4.976562 -8.3125 4.582031 -8.21875 4.25 -8.03125 C 3.925781 -7.84375 3.660156 -7.585938 3.453125 -7.265625 C 3.242188 -6.941406 3.085938 -6.570312 2.984375 -6.15625 C 2.890625 -5.738281 2.84375 -5.296875 2.84375 -4.828125 Z M 2.84375 -4.65625 "/></g></g><g transform="translate(575.362271, 866.731799)"><g><path d="M 5.734375 0.171875 C 5.066406 0.171875 4.453125 0.0546875 3.890625 -0.171875 C 3.328125 -0.398438 2.847656 -0.71875 2.453125 -1.125 C 2.054688 -1.53125 1.742188 -2.015625 1.515625 -2.578125 C 1.296875 -3.140625 1.1875 -3.753906 1.1875 -4.421875 L 1.1875 -4.796875 C 1.1875 -5.554688 1.304688 -6.238281 1.546875 -6.84375 C 1.796875 -7.457031 2.125 -7.972656 2.53125 -8.390625 C 2.9375 -8.804688 3.398438 -9.125 3.921875 -9.34375 C 4.441406 -9.570312 4.972656 -9.6875 5.515625 -9.6875 C 6.203125 -9.6875 6.800781 -9.566406 7.3125 -9.328125 C 7.832031 -9.085938 8.257812 -8.757812 8.59375 -8.34375 C 8.9375 -7.925781 9.191406 -7.429688 9.359375 -6.859375 C 9.523438 -6.296875 9.609375 -5.679688 9.609375 -5.015625 L 9.609375 -4.296875 L 2.8125 -4.296875 C 2.832031 -3.859375 2.914062 -3.445312 3.0625 -3.0625 C 3.207031 -2.6875 3.410156 -2.351562 3.671875 -2.0625 C 3.929688 -1.78125 4.242188 -1.554688 4.609375 -1.390625 C 4.972656 -1.234375 5.375 -1.15625 5.8125 -1.15625 C 6.394531 -1.15625 6.910156 -1.269531 7.359375 -1.5 C 7.816406 -1.738281 8.191406 -2.050781 8.484375 -2.4375 L 9.484375 -1.65625 C 9.328125 -1.414062 9.128906 -1.1875 8.890625 -0.96875 C 8.648438 -0.75 8.375 -0.550781 8.0625 -0.375 C 7.757812 -0.207031 7.410156 -0.078125 7.015625 0.015625 C 6.617188 0.117188 6.191406 0.171875 5.734375 0.171875 Z M 5.515625 -8.34375 C 5.191406 -8.34375 4.882812 -8.28125 4.59375 -8.15625 C 4.300781 -8.039062 4.035156 -7.867188 3.796875 -7.640625 C 3.566406 -7.410156 3.367188 -7.125 3.203125 -6.78125 C 3.046875 -6.445312 2.929688 -6.0625 2.859375 -5.625 L 7.984375 -5.625 L 7.984375 -5.75 C 7.960938 -6.0625 7.898438 -6.375 7.796875 -6.6875 C 7.691406 -7 7.539062 -7.273438 7.34375 -7.515625 C 7.144531 -7.765625 6.894531 -7.960938 6.59375 -8.109375 C 6.289062 -8.265625 5.929688 -8.34375 5.515625 -8.34375 Z M 5.515625 -8.34375 "/></g></g><g transform="translate(586.164028, 866.731799)"><g><path d="M 7.765625 -9.6875 C 7.910156 -9.6875 8.066406 -9.679688 8.234375 -9.671875 C 8.398438 -9.660156 8.554688 -9.644531 8.703125 -9.625 C 8.859375 -9.601562 9 -9.578125 9.125 -9.546875 C 9.25 -9.523438 9.351562 -9.492188 9.4375 -9.453125 L 9.21875 -7.859375 C 8.894531 -7.929688 8.59375 -7.984375 8.3125 -8.015625 C 8.03125 -8.046875 7.734375 -8.0625 7.421875 -8.0625 C 6.660156 -8.0625 6.039062 -7.890625 5.5625 -7.546875 C 5.09375 -7.203125 4.75 -6.71875 4.53125 -6.09375 L 4.53125 0 L 2.890625 0 L 2.890625 -9.515625 L 4.4375 -9.515625 L 4.515625 -8 C 4.898438 -8.519531 5.363281 -8.929688 5.90625 -9.234375 C 6.445312 -9.535156 7.066406 -9.6875 7.765625 -9.6875 Z M 7.765625 -9.6875 "/></g></g><g transform="translate(596.965785, 866.731799)"><g><path d="M 7.78125 0 C 7.71875 -0.125 7.664062 -0.273438 7.625 -0.453125 C 7.582031 -0.640625 7.554688 -0.832031 7.546875 -1.03125 C 7.378906 -0.875 7.191406 -0.722656 6.984375 -0.578125 C 6.785156 -0.429688 6.5625 -0.300781 6.3125 -0.1875 C 6.070312 -0.0703125 5.816406 0.015625 5.546875 0.078125 C 5.273438 0.140625 4.984375 0.171875 4.671875 0.171875 C 4.160156 0.171875 3.703125 0.0976562 3.296875 -0.046875 C 2.890625 -0.191406 2.546875 -0.390625 2.265625 -0.640625 C 1.984375 -0.890625 1.765625 -1.1875 1.609375 -1.53125 C 1.453125 -1.875 1.375 -2.242188 1.375 -2.640625 C 1.375 -3.160156 1.476562 -3.613281 1.6875 -4 C 1.894531 -4.394531 2.1875 -4.722656 2.5625 -4.984375 C 2.945312 -5.242188 3.40625 -5.4375 3.9375 -5.5625 C 4.476562 -5.695312 5.078125 -5.765625 5.734375 -5.765625 L 7.515625 -5.765625 L 7.515625 -6.515625 C 7.515625 -6.796875 7.460938 -7.050781 7.359375 -7.28125 C 7.253906 -7.507812 7.101562 -7.703125 6.90625 -7.859375 C 6.71875 -8.023438 6.484375 -8.148438 6.203125 -8.234375 C 5.921875 -8.328125 5.609375 -8.375 5.265625 -8.375 C 4.941406 -8.375 4.648438 -8.332031 4.390625 -8.25 C 4.140625 -8.164062 3.925781 -8.054688 3.75 -7.921875 C 3.570312 -7.785156 3.4375 -7.625 3.34375 -7.4375 C 3.25 -7.257812 3.203125 -7.070312 3.203125 -6.875 L 1.5625 -6.875 C 1.570312 -7.21875 1.660156 -7.554688 1.828125 -7.890625 C 2.003906 -8.222656 2.253906 -8.519531 2.578125 -8.78125 C 2.898438 -9.050781 3.296875 -9.269531 3.765625 -9.4375 C 4.234375 -9.601562 4.765625 -9.6875 5.359375 -9.6875 C 5.890625 -9.6875 6.382812 -9.617188 6.84375 -9.484375 C 7.3125 -9.359375 7.710938 -9.160156 8.046875 -8.890625 C 8.390625 -8.617188 8.65625 -8.285156 8.84375 -7.890625 C 9.039062 -7.492188 9.140625 -7.03125 9.140625 -6.5 L 9.140625 -2.078125 C 9.140625 -1.753906 9.164062 -1.414062 9.21875 -1.0625 C 9.28125 -0.707031 9.363281 -0.398438 9.46875 -0.140625 L 9.46875 0 Z M 4.90625 -1.234375 C 5.21875 -1.234375 5.507812 -1.273438 5.78125 -1.359375 C 6.0625 -1.441406 6.3125 -1.550781 6.53125 -1.6875 C 6.757812 -1.820312 6.957031 -1.972656 7.125 -2.140625 C 7.289062 -2.316406 7.421875 -2.5 7.515625 -2.6875 L 7.515625 -4.609375 L 6 -4.609375 C 5.050781 -4.609375 4.3125 -4.46875 3.78125 -4.1875 C 3.257812 -3.90625 3 -3.460938 3 -2.859375 C 3 -2.628906 3.035156 -2.414062 3.109375 -2.21875 C 3.191406 -2.019531 3.3125 -1.847656 3.46875 -1.703125 C 3.625 -1.554688 3.820312 -1.441406 4.0625 -1.359375 C 4.3125 -1.273438 4.59375 -1.234375 4.90625 -1.234375 Z M 4.90625 -1.234375 "/></g></g><g transform="translate(607.767542, 866.731799)"><g><path d="M 5.375 -11.8125 L 5.375 -9.515625 L 9 -9.515625 L 9 -8.25 L 5.375 -8.25 L 5.375 -3.078125 C 5.375 -2.710938 5.421875 -2.410156 5.515625 -2.171875 C 5.609375 -1.929688 5.738281 -1.738281 5.90625 -1.59375 C 6.070312 -1.445312 6.257812 -1.34375 6.46875 -1.28125 C 6.6875 -1.226562 6.914062 -1.203125 7.15625 -1.203125 C 7.332031 -1.203125 7.515625 -1.210938 7.703125 -1.234375 C 7.890625 -1.253906 8.070312 -1.28125 8.25 -1.3125 C 8.425781 -1.34375 8.59375 -1.375 8.75 -1.40625 C 8.90625 -1.4375 9.03125 -1.460938 9.125 -1.484375 L 9.359375 -0.328125 C 9.222656 -0.253906 9.054688 -0.1875 8.859375 -0.125 C 8.671875 -0.0625 8.460938 -0.0078125 8.234375 0.03125 C 8.003906 0.0820312 7.757812 0.117188 7.5 0.140625 C 7.25 0.160156 7 0.171875 6.75 0.171875 C 6.332031 0.171875 5.9375 0.113281 5.5625 0 C 5.195312 -0.125 4.878906 -0.316406 4.609375 -0.578125 C 4.335938 -0.835938 4.125 -1.171875 3.96875 -1.578125 C 3.820312 -1.992188 3.75 -2.492188 3.75 -3.078125 L 3.75 -8.25 L 1.25 -8.25 L 1.25 -9.515625 L 3.75 -9.515625 L 3.75 -11.8125 Z M 5.375 -11.8125 "/></g></g><g transform="translate(618.5693, 866.731799)"><g><path d="M 1.78125 -9.515625 L 6.640625 -9.515625 L 6.640625 -1.40625 L 9.75 -1.40625 L 9.75 0 L 1.78125 0 L 1.78125 -1.40625 L 5.015625 -1.40625 L 5.015625 -8.09375 L 1.78125 -8.09375 Z M 4.8125 -12 C 4.8125 -12.269531 4.890625 -12.5 5.046875 -12.6875 C 5.210938 -12.875 5.457031 -12.96875 5.78125 -12.96875 C 6.101562 -12.96875 6.347656 -12.875 6.515625 -12.6875 C 6.679688 -12.5 6.765625 -12.269531 6.765625 -12 C 6.765625 -11.738281 6.679688 -11.519531 6.515625 -11.34375 C 6.347656 -11.164062 6.101562 -11.078125 5.78125 -11.078125 C 5.457031 -11.078125 5.210938 -11.164062 5.046875 -11.34375 C 4.890625 -11.519531 4.8125 -11.738281 4.8125 -12 Z M 4.8125 -12 "/></g></g><g transform="translate(629.371057, 866.731799)"><g><path d="M 1.078125 -4.84375 C 1.078125 -5.53125 1.175781 -6.164062 1.375 -6.75 C 1.570312 -7.34375 1.851562 -7.851562 2.21875 -8.28125 C 2.59375 -8.71875 3.046875 -9.0625 3.578125 -9.3125 C 4.117188 -9.5625 4.722656 -9.6875 5.390625 -9.6875 C 6.066406 -9.6875 6.671875 -9.5625 7.203125 -9.3125 C 7.734375 -9.0625 8.1875 -8.71875 8.5625 -8.28125 C 8.9375 -7.851562 9.222656 -7.34375 9.421875 -6.75 C 9.617188 -6.164062 9.71875 -5.53125 9.71875 -4.84375 L 9.71875 -4.65625 C 9.71875 -3.96875 9.617188 -3.328125 9.421875 -2.734375 C 9.222656 -2.148438 8.9375 -1.640625 8.5625 -1.203125 C 8.1875 -0.773438 7.734375 -0.4375 7.203125 -0.1875 C 6.671875 0.0507812 6.070312 0.171875 5.40625 0.171875 C 4.726562 0.171875 4.117188 0.0507812 3.578125 -0.1875 C 3.046875 -0.4375 2.59375 -0.773438 2.21875 -1.203125 C 1.851562 -1.640625 1.570312 -2.148438 1.375 -2.734375 C 1.175781 -3.328125 1.078125 -3.96875 1.078125 -4.65625 Z M 2.703125 -4.65625 C 2.703125 -4.1875 2.753906 -3.738281 2.859375 -3.3125 C 2.972656 -2.882812 3.140625 -2.507812 3.359375 -2.1875 C 3.585938 -1.863281 3.875 -1.609375 4.21875 -1.421875 C 4.5625 -1.234375 4.957031 -1.140625 5.40625 -1.140625 C 5.851562 -1.140625 6.242188 -1.234375 6.578125 -1.421875 C 6.910156 -1.609375 7.191406 -1.863281 7.421875 -2.1875 C 7.648438 -2.507812 7.816406 -2.882812 7.921875 -3.3125 C 8.035156 -3.738281 8.09375 -4.1875 8.09375 -4.65625 L 8.09375 -4.84375 C 8.09375 -5.300781 8.035156 -5.742188 7.921875 -6.171875 C 7.804688 -6.597656 7.632812 -6.972656 7.40625 -7.296875 C 7.1875 -7.617188 6.90625 -7.875 6.5625 -8.0625 C 6.226562 -8.25 5.835938 -8.34375 5.390625 -8.34375 C 4.941406 -8.34375 4.546875 -8.25 4.203125 -8.0625 C 3.867188 -7.875 3.585938 -7.617188 3.359375 -7.296875 C 3.140625 -6.972656 2.972656 -6.597656 2.859375 -6.171875 C 2.753906 -5.742188 2.703125 -5.300781 2.703125 -4.84375 Z M 2.703125 -4.65625 "/></g></g><g transform="translate(640.172814, 866.731799)"><g><path d="M 2.984375 -9.515625 L 3.109375 -8.109375 C 3.453125 -8.597656 3.875 -8.976562 4.375 -9.25 C 4.882812 -9.53125 5.445312 -9.675781 6.0625 -9.6875 C 6.5625 -9.6875 7.015625 -9.613281 7.421875 -9.46875 C 7.828125 -9.332031 8.171875 -9.113281 8.453125 -8.8125 C 8.742188 -8.519531 8.96875 -8.140625 9.125 -7.671875 C 9.28125 -7.210938 9.359375 -6.664062 9.359375 -6.03125 L 9.359375 0 L 7.734375 0 L 7.734375 -6 C 7.734375 -6.425781 7.6875 -6.785156 7.59375 -7.078125 C 7.5 -7.367188 7.359375 -7.601562 7.171875 -7.78125 C 6.992188 -7.96875 6.769531 -8.101562 6.5 -8.1875 C 6.226562 -8.269531 5.921875 -8.3125 5.578125 -8.3125 C 5.035156 -8.3125 4.554688 -8.171875 4.140625 -7.890625 C 3.734375 -7.617188 3.40625 -7.265625 3.15625 -6.828125 L 3.15625 0 L 1.53125 0 L 1.53125 -9.515625 Z M 2.984375 -9.515625 "/></g></g></g><g fill="#000000" fill-opacity="1"><g transform="translate(242.973989, 376.756267)"><g><path d="M 184.78125 -29.140625 C 179.945312 -23.410156 174.609375 -18.46875 168.765625 -14.3125 C 162.929688 -10.15625 156.726562 -6.757812 150.15625 -4.125 C 143.59375 -1.488281 136.71875 0.414062 129.53125 1.59375 C 122.34375 2.78125 115.046875 3.375 107.640625 3.375 C 97.867188 3.257812 88.910156 1.710938 80.765625 -1.265625 C 72.628906 -4.242188 65.300781 -8.34375 58.78125 -13.5625 C 52.269531 -18.78125 46.597656 -24.898438 41.765625 -31.921875 C 36.941406 -38.941406 32.925781 -46.492188 29.71875 -54.578125 C 26.519531 -62.660156 24.078125 -71.109375 22.390625 -79.921875 C 20.710938 -88.734375 19.816406 -97.519531 19.703125 -106.28125 L 19.703125 -140.65625 C 19.816406 -149.1875 20.628906 -157.773438 22.140625 -166.421875 C 23.660156 -175.066406 25.960938 -183.40625 29.046875 -191.4375 C 32.140625 -199.46875 35.988281 -206.9375 40.59375 -213.84375 C 45.195312 -220.75 50.640625 -226.78125 56.921875 -231.9375 C 63.210938 -237.101562 70.316406 -241.175781 78.234375 -244.15625 C 86.148438 -247.132812 94.992188 -248.625 104.765625 -248.625 C 115.660156 -248.625 125.738281 -246.851562 135 -243.3125 C 144.269531 -239.78125 152.382812 -234.835938 159.34375 -228.484375 C 166.3125 -222.140625 171.957031 -214.53125 176.28125 -205.65625 C 180.601562 -196.789062 183.320312 -186.96875 184.4375 -176.1875 L 164.5625 -176.1875 C 162.988281 -184.050781 160.601562 -191.347656 157.40625 -198.078125 C 154.207031 -204.816406 150.132812 -210.601562 145.1875 -215.4375 C 140.25 -220.269531 134.4375 -224.0625 127.75 -226.8125 C 121.070312 -229.5625 113.46875 -230.9375 104.9375 -230.9375 C 97.070312 -230.9375 89.992188 -229.613281 83.703125 -226.96875 C 77.421875 -224.332031 71.894531 -220.796875 67.125 -216.359375 C 62.351562 -211.921875 58.253906 -206.753906 54.828125 -200.859375 C 51.398438 -194.972656 48.59375 -188.6875 46.40625 -182 C 44.21875 -175.320312 42.617188 -168.472656 41.609375 -161.453125 C 40.597656 -154.429688 40.035156 -147.609375 39.921875 -140.984375 L 39.921875 -106.28125 C 40.035156 -99.4375 40.679688 -92.421875 41.859375 -85.234375 C 43.035156 -78.046875 44.800781 -71.050781 47.15625 -64.25 C 49.519531 -57.457031 52.5 -51.03125 56.09375 -44.96875 C 59.6875 -38.90625 63.976562 -33.597656 68.96875 -29.046875 C 73.96875 -24.503906 79.664062 -20.910156 86.0625 -18.265625 C 92.46875 -15.628906 99.710938 -14.257812 107.796875 -14.15625 C 112.847656 -14.039062 118.066406 -14.289062 123.453125 -14.90625 C 128.847656 -15.519531 134.097656 -16.640625 139.203125 -18.265625 C 144.316406 -19.898438 149.09375 -22.117188 153.53125 -24.921875 C 157.96875 -27.734375 161.816406 -31.273438 165.078125 -35.546875 L 165.234375 -98.875 L 107.125 -98.875 L 107.125 -116.390625 L 184.4375 -116.390625 Z M 184.78125 -29.140625 "/></g></g><g transform="translate(449.989663, 376.756267)"><g><path d="M 185.125 -74.453125 C 183.769531 -63.441406 181.015625 -53.191406 176.859375 -43.703125 C 172.703125 -34.222656 167.195312 -25.972656 160.34375 -18.953125 C 153.5 -11.929688 145.390625 -6.453125 136.015625 -2.515625 C 126.640625 1.410156 116.113281 3.375 104.4375 3.375 C 94.664062 3.375 85.820312 1.882812 77.90625 -1.09375 C 69.988281 -4.070312 62.96875 -8.144531 56.84375 -13.3125 C 50.726562 -18.476562 45.421875 -24.539062 40.921875 -31.5 C 36.429688 -38.457031 32.726562 -45.953125 29.8125 -53.984375 C 26.894531 -62.015625 24.734375 -70.351562 23.328125 -79 C 21.921875 -87.644531 21.164062 -96.234375 21.0625 -104.765625 L 21.0625 -140.3125 C 21.164062 -148.84375 21.921875 -157.429688 23.328125 -166.078125 C 24.734375 -174.722656 26.894531 -183.0625 29.8125 -191.09375 C 32.726562 -199.125 36.429688 -206.617188 40.921875 -213.578125 C 45.421875 -220.546875 50.726562 -226.640625 56.84375 -231.859375 C 62.96875 -237.078125 69.988281 -241.175781 77.90625 -244.15625 C 85.820312 -247.132812 94.664062 -248.625 104.4375 -248.625 C 116.332031 -248.625 126.96875 -246.65625 136.34375 -242.71875 C 145.726562 -238.789062 153.84375 -233.316406 160.6875 -226.296875 C 167.539062 -219.285156 173.015625 -211.003906 177.109375 -201.453125 C 181.210938 -191.910156 183.882812 -181.523438 185.125 -170.296875 L 165.078125 -170.296875 C 163.722656 -178.710938 161.554688 -186.625 158.578125 -194.03125 C 155.609375 -201.445312 151.648438 -207.9375 146.703125 -213.5 C 141.765625 -219.0625 135.816406 -223.441406 128.859375 -226.640625 C 121.898438 -229.835938 113.757812 -231.4375 104.4375 -231.4375 C 96.457031 -231.4375 89.378906 -230.085938 83.203125 -227.390625 C 77.035156 -224.703125 71.617188 -221.109375 66.953125 -216.609375 C 62.296875 -212.117188 58.335938 -206.867188 55.078125 -200.859375 C 51.828125 -194.859375 49.1875 -188.488281 47.15625 -181.75 C 45.132812 -175.007812 43.644531 -168.128906 42.6875 -161.109375 C 41.738281 -154.097656 41.265625 -147.28125 41.265625 -140.65625 L 41.265625 -104.765625 C 41.265625 -98.140625 41.738281 -91.289062 42.6875 -84.21875 C 43.644531 -77.144531 45.132812 -70.238281 47.15625 -63.5 C 49.1875 -56.757812 51.828125 -50.382812 55.078125 -44.375 C 58.335938 -38.375 62.296875 -33.097656 66.953125 -28.546875 C 71.617188 -24.003906 77.035156 -20.382812 83.203125 -17.6875 C 89.378906 -14.988281 96.457031 -13.640625 104.4375 -13.640625 C 113.863281 -13.640625 122.085938 -15.179688 129.109375 -18.265625 C 136.128906 -21.359375 142.082031 -25.65625 146.96875 -31.15625 C 151.851562 -36.664062 155.78125 -43.125 158.75 -50.53125 C 161.726562 -57.945312 163.835938 -65.921875 165.078125 -74.453125 Z M 185.125 -74.453125 "/></g></g></g><g fill="#000000" fill-opacity="1"><g transform="translate(242.973989, 755.506248)"><g><path d="M 175.6875 0 L 21.890625 0 L 21.890625 -15.5 L 102.25 -106.625 C 108.195312 -113.363281 113.664062 -119.820312 118.65625 -126 C 123.65625 -132.175781 127.976562 -138.265625 131.625 -144.265625 C 135.28125 -150.273438 138.117188 -156.3125 140.140625 -162.375 C 142.160156 -168.4375 143.171875 -174.671875 143.171875 -181.078125 C 143.171875 -188.484375 141.9375 -195.273438 139.46875 -201.453125 C 137 -207.628906 133.488281 -212.9375 128.9375 -217.375 C 124.394531 -221.8125 118.976562 -225.265625 112.6875 -227.734375 C 106.394531 -230.203125 99.375 -231.4375 91.625 -231.4375 C 82.976562 -231.4375 75.285156 -229.976562 68.546875 -227.0625 C 61.816406 -224.144531 56.117188 -220.15625 51.453125 -215.09375 C 46.796875 -210.039062 43.203125 -204.0625 40.671875 -197.15625 C 38.148438 -190.25 36.832031 -182.695312 36.71875 -174.5 L 16.5 -174.5 C 16.613281 -184.613281 18.46875 -194.160156 22.0625 -203.140625 C 25.65625 -212.117188 30.707031 -219.976562 37.21875 -226.71875 C 43.738281 -233.457031 51.570312 -238.789062 60.71875 -242.71875 C 69.875 -246.65625 80.175781 -248.625 91.625 -248.625 C 102.40625 -248.625 112.203125 -247.019531 121.015625 -243.8125 C 129.835938 -240.613281 137.390625 -236.066406 143.671875 -230.171875 C 149.960938 -224.273438 154.820312 -217.203125 158.25 -208.953125 C 161.675781 -200.703125 163.390625 -191.578125 163.390625 -181.578125 C 163.390625 -173.492188 161.957031 -165.632812 159.09375 -158 C 156.226562 -150.363281 152.519531 -142.894531 147.96875 -135.59375 C 143.425781 -128.289062 138.265625 -121.210938 132.484375 -114.359375 C 126.703125 -107.515625 120.945312 -100.835938 115.21875 -94.328125 L 46.65625 -17.015625 L 175.6875 -17.015625 Z M 175.6875 0 "/></g></g><g transform="translate(449.989663, 755.506248)"><g><path d="M 43.796875 -125.65625 L 55.75 -245.25 L 178.375 -245.25 L 178.375 -225.71875 L 72.9375 -225.71875 L 64.515625 -143.6875 C 70.578125 -147.832031 77.535156 -151.113281 85.390625 -153.53125 C 93.253906 -155.945312 101.679688 -157.15625 110.671875 -157.15625 C 121.785156 -157.15625 131.832031 -155.21875 140.8125 -151.34375 C 149.800781 -147.46875 157.4375 -142.019531 163.71875 -135 C 170.007812 -127.988281 174.835938 -119.625 178.203125 -109.90625 C 181.578125 -100.195312 183.265625 -89.613281 183.265625 -78.15625 C 183.265625 -66.8125 181.800781 -56.195312 178.875 -46.3125 C 175.957031 -36.4375 171.492188 -27.820312 165.484375 -20.46875 C 159.484375 -13.113281 151.90625 -7.300781 142.75 -3.03125 C 133.601562 1.238281 122.796875 3.375 110.328125 3.375 C 100.109375 3.375 90.644531 1.859375 81.9375 -1.171875 C 73.238281 -4.210938 65.601562 -8.648438 59.03125 -14.484375 C 52.46875 -20.328125 47.132812 -27.457031 43.03125 -35.875 C 38.9375 -44.300781 36.328125 -53.847656 35.203125 -64.515625 L 54.75 -64.515625 C 55.757812 -56.535156 57.722656 -49.398438 60.640625 -43.109375 C 63.554688 -36.828125 67.375 -31.492188 72.09375 -27.109375 C 76.8125 -22.734375 82.367188 -19.394531 88.765625 -17.09375 C 95.171875 -14.789062 102.359375 -13.640625 110.328125 -13.640625 C 119.316406 -13.640625 127.125 -15.265625 133.75 -18.515625 C 140.375 -21.773438 145.875 -26.296875 150.25 -32.078125 C 154.625 -37.867188 157.847656 -44.664062 159.921875 -52.46875 C 162.003906 -60.269531 163.046875 -68.71875 163.046875 -77.8125 C 163.046875 -86.351562 161.78125 -94.328125 159.25 -101.734375 C 156.726562 -109.148438 153.050781 -115.609375 148.21875 -121.109375 C 143.394531 -126.609375 137.53125 -130.929688 130.625 -134.078125 C 123.71875 -137.222656 115.882812 -138.796875 107.125 -138.796875 C 101.957031 -138.796875 97.210938 -138.457031 92.890625 -137.78125 C 88.566406 -137.113281 84.523438 -136.019531 80.765625 -134.5 C 77.003906 -132.988281 73.410156 -131.132812 69.984375 -128.9375 C 66.554688 -126.75 63.160156 -124.140625 59.796875 -121.109375 Z M 43.796875 -125.65625 "/></g></g></g></svg>