<?xml version="1.0" encoding="UTF-8"?>
<svg id="Ebene_1" xmlns="http://www.w3.org/2000/svg" version="1.1" viewBox="0 0 1200 1200">
  <!-- Generator: Adobe Illustrator 30.1.0, SVG Export Plug-In . SVG Version: 2.1.1 Build 136)  -->
  <defs>
    <style>
      .st0 {
        fill: #fff;
      }
    </style>
  </defs>
  <rect class="st0" width="1200" height="1200"/>
  <g>
    <path d="M161.65,373.67c0-26.98,2.79-51.13,8.37-72.46,5.58-21.32,13.92-39.35,25-54.08,11.09-14.73,25.2-25.97,42.33-33.73,17.13-7.75,37.33-11.63,60.59-11.63,16.16,0,31.15,2.29,44.98,6.86,13.83,4.58,25.83,11.17,36.01,19.77,10.18,8.61,18.45,19,24.82,31.17,6.37,12.18,10.02,25.94,10.96,41.29h-45.36c-2.17-19.07-9.69-33.76-22.56-44.08-12.87-10.31-30.63-15.47-53.27-15.47-12.1,0-23.14,1.98-33.15,5.93-10,3.95-18.57,9.42-25.7,16.4-7.13,6.98-12.76,15.32-16.86,25.01-4.11,9.69-6.16,20.43-6.16,32.22v100.02c0,11.48,2.13,22.02,6.4,31.63,4.26,9.62,10.16,18.03,17.68,25.24,7.52,7.21,16.43,12.79,26.75,16.75,10.31,3.95,21.44,5.93,33.38,5.93,25.12,0,44.5-6.67,58.15-20,13.64-13.33,20.47-32.72,20.47-58.15v-21.87h-73.27v-40.47h118.63v172.83h-43.27l-2.09-34.19c-8.22,12.41-18.84,22.41-31.87,30.01-13.03,7.6-29.85,11.4-50.48,11.4s-39.04-3.92-55.24-11.75c-16.21-7.83-29.85-18.96-40.94-33.38-11.09-14.42-19.58-31.87-25.47-52.34-5.9-20.47-8.84-43.42-8.84-68.85Z"/>
    <path d="M496.37,532.78V208.75h104.91c48.85,0,84.24,13.42,106.19,40.24,21.94,26.83,32.91,67.46,32.91,121.89s-10.97,94.83-32.91,121.65c-21.95,26.83-57.34,40.24-106.19,40.24h-104.91ZM541.73,492.3h59.55c30.55,0,53.04-6.36,67.46-19.07,14.42-12.71,21.63-31.01,21.63-54.9v-95.14c0-23.88-7.21-42.18-21.63-54.9-14.42-12.71-36.91-19.07-67.46-19.07h-59.55v243.08Z"/>
    <path d="M799.46,373.67c0-26.36,2.71-50.16,8.15-71.41,5.43-21.24,13.69-39.35,24.79-54.31,11.1-14.96,25.07-26.4,41.91-34.31,16.84-7.91,36.52-11.86,59.02-11.86,15.52,0,30.07,2.29,43.65,6.86,13.58,4.58,25.45,11.17,35.62,19.77,10.17,8.61,18.35,19,24.56,31.17,6.21,12.18,9.78,25.94,10.71,41.29h-45.36c-2.17-19.07-9.63-33.76-22.36-44.08-12.74-10.31-29.75-15.47-51.02-15.47-11.49,0-22.09,1.98-31.8,5.93-9.71,3.95-18.13,9.42-25.28,16.4-7.15,6.98-12.7,15.32-16.66,25.01-3.96,9.69-5.94,20.43-5.94,32.22v100.02c0,11.48,2.13,22.02,6.4,31.63,4.27,9.62,10.17,18.03,17.71,25.24,7.53,7.21,16.31,12.79,26.32,16.75,10.02,3.95,20.69,5.93,32.03,5.93,21.52,0,38.98-4.84,52.37-14.54,13.39-9.69,21.17-25.55,23.34-47.57h45.36c-.93,15.2-4.66,29.12-11.18,41.75-6.52,12.64-15.09,23.3-25.73,31.98-10.63,8.69-23.13,15.51-37.48,20.47-14.36,4.96-29.76,7.44-46.21,7.44-21.58,0-40.63-3.92-57.16-11.75-16.53-7.83-30.34-19.03-41.44-33.61-11.1-14.57-19.6-32.02-25.5-52.34-5.9-20.31-8.85-43.19-8.85-68.62Z"/>
    <path d="M147,831.91c0-26.36,2.71-50.16,8.15-71.41,5.43-21.24,13.69-39.35,24.79-54.31,11.1-14.96,25.07-26.4,41.91-34.31,16.84-7.91,36.52-11.86,59.02-11.86,15.52,0,30.07,2.29,43.65,6.86,13.58,4.58,25.45,11.17,35.62,19.77,10.17,8.61,18.35,19,24.56,31.17,6.21,12.18,9.78,25.94,10.71,41.29h-45.36c-2.17-19.07-9.63-33.76-22.36-44.08-12.74-10.31-29.75-15.47-51.02-15.47-11.49,0-22.09,1.98-31.8,5.93-9.71,3.95-18.13,9.42-25.28,16.4-7.15,6.98-12.7,15.32-16.66,25.01-3.96,9.69-5.94,20.43-5.94,32.22v100.02c0,11.48,2.13,22.02,6.4,31.63,4.27,9.62,10.17,18.03,17.71,25.24,7.53,7.21,16.31,12.79,26.32,16.75,10.02,3.95,20.69,5.93,32.03,5.93,21.52,0,38.98-4.84,52.37-14.54,13.39-9.69,21.17-25.55,23.34-47.57h45.36c-.93,15.2-4.66,29.12-11.18,41.75-6.52,12.64-15.09,23.3-25.73,31.98-10.63,8.69-23.13,15.51-37.48,20.47-14.36,4.96-29.76,7.44-46.21,7.44-21.58,0-40.63-3.92-57.16-11.75-16.53-7.83-30.34-19.03-41.44-33.61-11.1-14.57-19.6-32.02-25.5-52.34-5.9-20.31-8.85-43.19-8.85-68.62Z"/>
    <path d="M452.64,829.12c0-25.43,2.71-48.54,8.14-69.32,5.43-20.78,13.76-38.57,25-53.38,11.24-14.81,25.59-26.24,43.03-34.31,17.45-8.06,38.42-12.1,62.92-12.1s45.47,4.03,62.92,12.1c17.45,8.06,31.79,19.5,43.03,34.31,11.24,14.81,19.58,32.6,25,53.38,5.43,20.78,8.14,43.89,8.14,69.32s-2.71,48.54-8.14,69.32c-5.43,20.78-13.76,38.54-25,53.27-11.25,14.73-25.59,26.17-43.03,34.31-17.45,8.14-38.42,12.21-62.92,12.21s-45.47-4.07-62.92-12.21c-17.45-8.14-31.79-19.58-43.03-34.31-11.25-14.73-19.58-32.48-25-53.27-5.43-20.78-8.14-43.88-8.14-69.32ZM502.65,879.13c0,12.41,2.29,23.46,6.86,33.15,4.57,9.69,10.93,18.03,19.07,25.01,8.14,6.98,17.6,12.29,28.38,15.93,10.78,3.65,22.37,5.47,34.78,5.47s24-1.82,34.78-5.47c10.78-3.64,20.24-8.96,28.38-15.93,8.14-6.98,14.5-15.31,19.07-25.01,4.57-9.69,6.86-20.74,6.86-33.15v-100.02c0-12.4-2.29-23.45-6.86-33.15-4.58-9.69-10.93-18.03-19.07-25.01-8.14-6.98-17.6-12.29-28.38-15.93-10.78-3.64-22.37-5.47-34.78-5.47s-24,1.82-34.78,5.47c-10.78,3.65-20.24,8.96-28.38,15.93-8.14,6.98-14.5,15.32-19.07,25.01-4.58,9.69-6.86,20.74-6.86,33.15v100.02Z"/>
    <path d="M803.42,991.02v-324.02h63.97l133.75,269.13h2.09v-269.13h43.96v324.02h-63.97l-133.98-270.52h-1.86v270.52h-43.96Z"/>
  </g>
</svg>