<?xml version="1.0" encoding="UTF-8"?>
<!-- Generated by Pixelmator Pro 3.6.18 -->
<svg width="1200" height="1200" viewBox="0 0 1200 1200" xmlns="http://www.w3.org/2000/svg">
    <path id="Path" fill="#ffffff" stroke="none" d="M -120 -120 L 1320 -120 L 1320 1320 L -120 1320 Z"/>
    <path id="path1" fill="#ffffff" stroke="none" d="M -120 -120 L 1320 -120 L 1320 1320 L -120 1320 Z"/>
    <g id="Group">
        <g id="g1">
            <g id="g2">
                <path id="path2" fill="#000000" stroke="none" d="M 570.340332 463.487549 C 563.892395 471.128174 556.777832 477.716675 548.986145 483.258362 C 541.204895 488.800049 532.934082 493.331299 524.173645 496.841675 C 515.423645 500.3573 506.256989 502.893799 496.673645 504.466675 C 487.090332 506.050049 477.361145 506.841675 467.486145 506.841675 C 454.454895 506.685425 442.512207 504.622925 431.652832 500.654175 C 420.803864 496.685425 411.03302 491.216675 402.340332 484.258362 C 393.65802 477.300049 386.09552 469.143799 379.652832 459.779175 C 373.22052 450.4198 367.866364 440.352112 363.590332 429.570862 C 359.324707 418.7948 356.069489 407.529175 353.819489 395.779175 C 351.579895 384.029175 350.387207 372.315674 350.236145 360.633362 L 350.236145 314.800049 C 350.387207 303.425049 351.47052 291.977112 353.486145 280.445862 C 355.512207 268.9198 358.579895 257.800049 362.694489 247.091675 C 366.819489 236.383362 371.949707 226.425049 378.090332 217.216675 C 384.225739 208.008362 391.486145 199.966675 399.861145 193.091675 C 408.246582 186.206299 417.72052 180.773987 428.277832 176.800049 C 438.829895 172.831299 450.621582 170.841675 463.652832 170.841675 C 478.178864 170.841675 491.616364 173.206299 503.965332 177.925049 C 516.324707 182.633362 527.142395 189.227112 536.423645 197.695862 C 545.715332 206.154175 553.241333 216.300049 559.006958 228.133362 C 564.767395 239.956299 568.392395 253.050049 569.881958 267.425049 L 543.381958 267.425049 C 541.28302 256.940674 538.100708 247.211487 533.840332 238.237549 C 529.574707 229.253174 524.142395 221.539612 517.548645 215.091675 C 510.965332 208.648987 503.215332 203.591675 494.298645 199.925049 C 485.392395 196.258362 475.256989 194.425049 463.881989 194.425049 C 453.392395 194.425049 443.954895 196.190674 435.569489 199.716675 C 427.194489 203.2323 419.824707 207.945862 413.465332 213.862549 C 407.100739 219.779175 401.637207 226.6698 397.069489 234.529175 C 392.496582 242.378174 388.756989 250.758362 385.840332 259.675049 C 382.923645 268.581299 380.788239 277.711487 379.444489 287.070862 C 378.09552 296.435425 377.34552 305.529175 377.194489 314.362549 L 377.194489 360.633362 C 377.34552 369.758362 378.204895 379.112549 379.777832 388.695862 C 381.34552 398.279175 383.699707 407.6073 386.840332 416.675049 C 389.991364 425.7323 393.965332 434.300049 398.756989 442.383362 C 403.548645 450.466675 409.267395 457.5448 415.923645 463.612549 C 422.590332 469.6698 430.184082 474.461487 438.715332 477.987549 C 447.256989 481.503174 456.913239 483.331299 467.694489 483.466675 C 474.428864 483.622925 481.387207 483.289612 488.569489 482.466675 C 495.762207 481.648987 502.762207 480.154175 509.569489 477.987549 C 516.387207 475.810425 522.756958 472.852112 528.673645 469.112549 C 534.590332 465.362549 539.72052 460.643799 544.069458 454.945862 L 544.277832 370.508362 L 466.798645 370.508362 L 466.798645 347.154175 L 569.881958 347.154175 Z M 570.340332 463.487549"/>
            </g>
        </g>
        <g id="g3">
            <g id="g4">
                <path id="path3" fill="#000000" stroke="none" d="M 846.81958 403.070862 C 845.012268 417.753174 841.340393 431.4198 835.798706 444.070862 C 830.25708 456.711487 822.91333 467.711487 813.777893 477.070862 C 804.652893 486.435425 793.840393 493.737549 781.340393 498.987549 C 768.840393 504.221924 754.803955 506.841675 739.236206 506.841675 C 726.204956 506.841675 714.41333 504.852112 703.861206 500.883362 C 693.303955 496.914612 683.94458 491.4823 675.777893 484.591675 C 667.621643 477.706299 660.548706 469.622925 654.548706 460.341675 C 648.559143 451.065674 643.621643 441.070862 639.736206 430.362549 C 635.845581 419.654175 632.965393 408.539612 631.090393 397.008362 C 629.215393 385.4823 628.204956 374.029175 628.06958 362.654175 L 628.06958 315.258362 C 628.204956 303.883362 629.215393 292.435425 631.090393 280.904175 C 632.965393 269.378174 635.845581 258.258362 639.736206 247.550049 C 643.621643 236.841675 648.559143 226.852112 654.548706 217.570862 C 660.548706 208.279175 667.621643 200.154175 675.777893 193.195862 C 683.94458 186.237549 693.303955 180.773987 703.861206 176.800049 C 714.41333 172.831299 726.204956 170.841675 739.236206 170.841675 C 755.095581 170.841675 769.277893 173.466675 781.777893 178.716675 C 794.28833 183.956299 805.111206 191.253174 814.236206 200.612549 C 823.371643 209.961487 830.673706 221.003174 836.13208 233.737549 C 841.60083 246.461487 845.16333 260.310425 846.81958 275.279175 L 820.090393 275.279175 C 818.283081 264.060425 815.392456 253.508362 811.423706 243.633362 C 807.465393 233.747925 802.184143 225.091675 795.590393 217.675049 C 789.00708 210.258362 781.074768 204.4198 771.798706 200.154175 C 762.517456 195.893799 751.66333 193.758362 739.236206 193.758362 C 728.595581 193.758362 719.158081 195.560425 710.923706 199.154175 C 702.699768 202.737549 695.47583 207.529175 689.25708 213.529175 C 683.048706 219.518799 677.767456 226.518799 673.423706 234.529175 C 669.090393 242.529175 665.56958 251.023987 662.861206 260.008362 C 660.16333 268.997925 658.178955 278.1698 656.902893 287.529175 C 655.637268 296.878174 655.00708 305.966675 655.00708 314.800049 L 655.00708 362.654175 C 655.00708 371.487549 655.637268 380.622925 656.902893 390.050049 C 658.178955 399.4823 660.16333 408.690674 662.861206 417.675049 C 665.56958 426.664612 669.090393 435.164612 673.423706 443.175049 C 677.767456 451.175049 683.048706 458.211487 689.25708 464.279175 C 695.47583 470.336487 702.699768 475.164612 710.923706 478.758362 C 719.158081 482.3573 728.595581 484.154175 739.236206 484.154175 C 751.803955 484.154175 762.767456 482.102112 772.13208 477.987549 C 781.491455 473.862549 789.428955 468.133362 795.94458 460.800049 C 802.454956 453.456299 807.69458 444.841675 811.652893 434.966675 C 815.621643 425.081299 818.434143 414.445862 820.090393 403.070862 Z M 846.81958 403.070862"/>
            </g>
        </g>
    </g>
    <g id="g5">
        <g id="g6">
            <g id="g7">
                <path id="path4" fill="#000000" stroke="none" d="M 558.215332 1007.341675 L 353.152832 1007.341675 L 353.152832 986.674988 L 460.298645 865.175049 C 468.225739 856.190674 475.517395 847.581299 482.173645 839.341675 C 488.840332 831.1073 494.600739 822.987549 499.465332 814.987549 C 504.340332 806.977051 508.121582 798.925049 510.819489 790.841675 C 513.512207 782.758301 514.861145 774.445801 514.861145 765.904175 C 514.861145 756.029175 513.215332 746.977051 509.923645 738.737549 C 506.631989 730.503174 501.949707 723.425049 495.881989 717.508301 C 489.824707 711.591675 482.600739 706.987549 474.215332 703.695801 C 465.824707 700.404175 456.465332 698.758301 446.131989 698.758301 C 434.600739 698.758301 424.34552 700.706299 415.361145 704.591675 C 406.387207 708.4823 398.788239 713.800049 392.569489 720.550049 C 386.361145 727.289551 381.569489 735.258301 378.194489 744.466675 C 374.829895 753.675049 373.074707 763.747925 372.923645 774.675049 L 345.965332 774.675049 C 346.116364 761.190674 348.590332 748.461426 353.381989 736.487549 C 358.173645 724.518799 364.90802 714.039551 373.590332 705.050049 C 382.28302 696.065674 392.725739 688.956299 404.923645 683.716675 C 417.131989 678.466675 430.866364 675.841675 446.131989 675.841675 C 460.506989 675.841675 473.569489 677.9823 485.319489 682.258362 C 497.079895 686.523987 507.152832 692.586426 515.527832 700.445801 C 523.913208 708.310425 530.392395 717.737549 534.965332 728.737549 C 539.53302 739.737549 541.819458 751.904175 541.819458 765.237549 C 541.819458 776.018799 539.90802 786.497925 536.090332 796.675049 C 532.267395 806.8573 527.324707 816.815674 521.256958 826.550049 C 515.199707 836.289551 508.319489 845.727051 500.611145 854.862549 C 492.902832 863.987549 485.225739 872.893799 477.590332 881.570801 L 386.173645 984.654175 L 558.215332 984.654175 Z M 558.215332 1007.341675"/>
            </g>
        </g>
        <g id="g8">
            <g id="g9">
                <path id="path5" fill="#000000" stroke="none" d="M 658.38208 839.800049 L 674.31958 680.341675 L 837.81958 680.341675 L 837.81958 706.383301 L 697.236206 706.383301 L 686.00708 815.758301 C 694.090393 810.2323 703.366455 805.8573 713.840393 802.633301 C 724.324768 799.414551 735.559143 797.800049 747.548706 797.800049 C 762.366455 797.800049 775.762268 800.383301 787.736206 805.550049 C 799.720581 810.716675 809.902893 817.9823 818.277893 827.341675 C 826.66333 836.690674 833.10083 847.841675 837.590393 860.800049 C 842.090393 873.747925 844.340393 887.8573 844.340393 903.133301 C 844.340393 918.258301 842.387268 932.414551 838.486206 945.591675 C 834.595581 958.758301 828.642456 970.247925 820.63208 980.049988 C 812.63208 989.8573 802.527893 997.6073 790.31958 1003.299988 C 778.121643 1008.992676 763.715393 1011.841675 747.090393 1011.841675 C 733.465393 1011.841675 720.845581 1009.820801 709.236206 1005.779175 C 697.637268 1001.727051 687.454956 995.810425 678.69458 988.029175 C 669.94458 980.237488 662.829956 970.7323 657.361206 959.508301 C 651.902893 948.273926 648.423706 935.5448 646.923706 921.320801 L 672.986206 921.320801 C 674.329956 931.961426 676.949768 941.477051 680.840393 949.862488 C 684.72583 958.237488 689.81958 965.352051 696.111206 971.195801 C 702.402893 977.029175 709.809143 981.4823 718.340393 984.549988 C 726.88208 987.622925 736.465393 989.154175 747.090393 989.154175 C 759.074768 989.154175 769.486206 986.987488 778.31958 982.654175 C 787.152893 978.310425 794.486206 972.279175 800.31958 964.570801 C 806.152893 956.852051 810.449768 947.789551 813.215393 937.383301 C 815.991455 926.9823 817.38208 915.716675 817.38208 903.591675 C 817.38208 892.206299 815.69458 881.570801 812.31958 871.695801 C 808.954956 861.810425 804.053955 853.195801 797.611206 845.862549 C 791.178955 838.529175 783.361206 832.768799 774.152893 828.570801 C 764.94458 824.378174 754.496643 822.279175 742.81958 822.279175 C 735.928955 822.279175 729.60083 822.7323 723.840393 823.633301 C 718.074768 824.523926 712.684143 825.9823 707.673706 828.008301 C 702.658081 830.023926 697.866455 832.497925 693.298706 835.425049 C 688.72583 838.341675 684.199768 841.820801 679.715393 845.862549 Z M 658.38208 839.800049"/>
            </g>
        </g>
    </g>
</svg>
