<svg xmlns="http://www.w3.org/2000/svg" xmlns:xlink="http://www.w3.org/1999/xlink" width="1200" zoomAndPan="magnify" viewBox="0 0 900 899.99999" height="1200" preserveAspectRatio="xMidYMid meet" version="1.0"><defs><g/></defs><rect x="-90" width="1080" fill="#ffffff" y="-89.999999" height="1079.999988" fill-opacity="1"/><rect x="-90" width="1080" fill="#ffffff" y="-89.999999" height="1079.999988" fill-opacity="1"/><g fill="#000000" fill-opacity="1"><g transform="translate(242.973989, 376.756267)"><g><path d="M 184.78125 -29.140625 C 179.945312 -23.410156 174.609375 -18.46875 168.765625 -14.3125 C 162.929688 -10.15625 156.726562 -6.757812 150.15625 -4.125 C 143.59375 -1.488281 136.71875 0.414062 129.53125 1.59375 C 122.34375 2.78125 115.046875 3.375 107.640625 3.375 C 97.867188 3.257812 88.910156 1.710938 80.765625 -1.265625 C 72.628906 -4.242188 65.300781 -8.34375 58.78125 -13.5625 C 52.269531 -18.78125 46.597656 -24.898438 41.765625 -31.921875 C 36.941406 -38.941406 32.925781 -46.492188 29.71875 -54.578125 C 26.519531 -62.660156 24.078125 -71.109375 22.390625 -79.921875 C 20.710938 -88.734375 19.816406 -97.519531 19.703125 -106.28125 L 19.703125 -140.65625 C 19.816406 -149.1875 20.628906 -157.773438 22.140625 -166.421875 C 23.660156 -175.066406 25.960938 -183.40625 29.046875 -191.4375 C 32.140625 -199.46875 35.988281 -206.9375 40.59375 -213.84375 C 45.195312 -220.75 50.640625 -226.78125 56.921875 -231.9375 C 63.210938 -237.101562 70.316406 -241.175781 78.234375 -244.15625 C 86.148438 -247.132812 94.992188 -248.625 104.765625 -248.625 C 115.660156 -248.625 125.738281 -246.851562 135 -243.3125 C 144.269531 -239.78125 152.382812 -234.835938 159.34375 -228.484375 C 166.3125 -222.140625 171.957031 -214.53125 176.28125 -205.65625 C 180.601562 -196.789062 183.320312 -186.96875 184.4375 -176.1875 L 164.5625 -176.1875 C 162.988281 -184.050781 160.601562 -191.347656 157.40625 -198.078125 C 154.207031 -204.816406 150.132812 -210.601562 145.1875 -215.4375 C 140.25 -220.269531 134.4375 -224.0625 127.75 -226.8125 C 121.070312 -229.5625 113.46875 -230.9375 104.9375 -230.9375 C 97.070312 -230.9375 89.992188 -229.613281 83.703125 -226.96875 C 77.421875 -224.332031 71.894531 -220.796875 67.125 -216.359375 C 62.351562 -211.921875 58.253906 -206.753906 54.828125 -200.859375 C 51.398438 -194.972656 48.59375 -188.6875 46.40625 -182 C 44.21875 -175.320312 42.617188 -168.472656 41.609375 -161.453125 C 40.597656 -154.429688 40.035156 -147.609375 39.921875 -140.984375 L 39.921875 -106.28125 C 40.035156 -99.4375 40.679688 -92.421875 41.859375 -85.234375 C 43.035156 -78.046875 44.800781 -71.050781 47.15625 -64.25 C 49.519531 -57.457031 52.5 -51.03125 56.09375 -44.96875 C 59.6875 -38.90625 63.976562 -33.597656 68.96875 -29.046875 C 73.96875 -24.503906 79.664062 -20.910156 86.0625 -18.265625 C 92.46875 -15.628906 99.710938 -14.257812 107.796875 -14.15625 C 112.847656 -14.039062 118.066406 -14.289062 123.453125 -14.90625 C 128.847656 -15.519531 134.097656 -16.640625 139.203125 -18.265625 C 144.316406 -19.898438 149.09375 -22.117188 153.53125 -24.921875 C 157.96875 -27.734375 161.816406 -31.273438 165.078125 -35.546875 L 165.234375 -98.875 L 107.125 -98.875 L 107.125 -116.390625 L 184.4375 -116.390625 Z M 184.78125 -29.140625 "/></g></g><g transform="translate(449.989663, 376.756267)"><g><path d="M 185.125 -74.453125 C 183.769531 -63.441406 181.015625 -53.191406 176.859375 -43.703125 C 172.703125 -34.222656 167.195312 -25.972656 160.34375 -18.953125 C 153.5 -11.929688 145.390625 -6.453125 136.015625 -2.515625 C 126.640625 1.410156 116.113281 3.375 104.4375 3.375 C 94.664062 3.375 85.820312 1.882812 77.90625 -1.09375 C 69.988281 -4.070312 62.96875 -8.144531 56.84375 -13.3125 C 50.726562 -18.476562 45.421875 -24.539062 40.921875 -31.5 C 36.429688 -38.457031 32.726562 -45.953125 29.8125 -53.984375 C 26.894531 -62.015625 24.734375 -70.351562 23.328125 -79 C 21.921875 -87.644531 21.164062 -96.234375 21.0625 -104.765625 L 21.0625 -140.3125 C 21.164062 -148.84375 21.921875 -157.429688 23.328125 -166.078125 C 24.734375 -174.722656 26.894531 -183.0625 29.8125 -191.09375 C 32.726562 -199.125 36.429688 -206.617188 40.921875 -213.578125 C 45.421875 -220.546875 50.726562 -226.640625 56.84375 -231.859375 C 62.96875 -237.078125 69.988281 -241.175781 77.90625 -244.15625 C 85.820312 -247.132812 94.664062 -248.625 104.4375 -248.625 C 116.332031 -248.625 126.96875 -246.65625 136.34375 -242.71875 C 145.726562 -238.789062 153.84375 -233.316406 160.6875 -226.296875 C 167.539062 -219.285156 173.015625 -211.003906 177.109375 -201.453125 C 181.210938 -191.910156 183.882812 -181.523438 185.125 -170.296875 L 165.078125 -170.296875 C 163.722656 -178.710938 161.554688 -186.625 158.578125 -194.03125 C 155.609375 -201.445312 151.648438 -207.9375 146.703125 -213.5 C 141.765625 -219.0625 135.816406 -223.441406 128.859375 -226.640625 C 121.898438 -229.835938 113.757812 -231.4375 104.4375 -231.4375 C 96.457031 -231.4375 89.378906 -230.085938 83.203125 -227.390625 C 77.035156 -224.703125 71.617188 -221.109375 66.953125 -216.609375 C 62.296875 -212.117188 58.335938 -206.867188 55.078125 -200.859375 C 51.828125 -194.859375 49.1875 -188.488281 47.15625 -181.75 C 45.132812 -175.007812 43.644531 -168.128906 42.6875 -161.109375 C 41.738281 -154.097656 41.265625 -147.28125 41.265625 -140.65625 L 41.265625 -104.765625 C 41.265625 -98.140625 41.738281 -91.289062 42.6875 -84.21875 C 43.644531 -77.144531 45.132812 -70.238281 47.15625 -63.5 C 49.1875 -56.757812 51.828125 -50.382812 55.078125 -44.375 C 58.335938 -38.375 62.296875 -33.097656 66.953125 -28.546875 C 71.617188 -24.003906 77.035156 -20.382812 83.203125 -17.6875 C 89.378906 -14.988281 96.457031 -13.640625 104.4375 -13.640625 C 113.863281 -13.640625 122.085938 -15.179688 129.109375 -18.265625 C 136.128906 -21.359375 142.082031 -25.65625 146.96875 -31.15625 C 151.851562 -36.664062 155.78125 -43.125 158.75 -50.53125 C 161.726562 -57.945312 163.835938 -65.921875 165.078125 -74.453125 Z M 185.125 -74.453125 "/></g></g></g><g fill="#000000" fill-opacity="1"><g transform="translate(242.973989, 755.506248)"><g><path d="M 175.6875 0 L 21.890625 0 L 21.890625 -15.5 L 102.25 -106.625 C 108.195312 -113.363281 113.664062 -119.820312 118.65625 -126 C 123.65625 -132.175781 127.976562 -138.265625 131.625 -144.265625 C 135.28125 -150.273438 138.117188 -156.3125 140.140625 -162.375 C 142.160156 -168.4375 143.171875 -174.671875 143.171875 -181.078125 C 143.171875 -188.484375 141.9375 -195.273438 139.46875 -201.453125 C 137 -207.628906 133.488281 -212.9375 128.9375 -217.375 C 124.394531 -221.8125 118.976562 -225.265625 112.6875 -227.734375 C 106.394531 -230.203125 99.375 -231.4375 91.625 -231.4375 C 82.976562 -231.4375 75.285156 -229.976562 68.546875 -227.0625 C 61.816406 -224.144531 56.117188 -220.15625 51.453125 -215.09375 C 46.796875 -210.039062 43.203125 -204.0625 40.671875 -197.15625 C 38.148438 -190.25 36.832031 -182.695312 36.71875 -174.5 L 16.5 -174.5 C 16.613281 -184.613281 18.46875 -194.160156 22.0625 -203.140625 C 25.65625 -212.117188 30.707031 -219.976562 37.21875 -226.71875 C 43.738281 -233.457031 51.570312 -238.789062 60.71875 -242.71875 C 69.875 -246.65625 80.175781 -248.625 91.625 -248.625 C 102.40625 -248.625 112.203125 -247.019531 121.015625 -243.8125 C 129.835938 -240.613281 137.390625 -236.066406 143.671875 -230.171875 C 149.960938 -224.273438 154.820312 -217.203125 158.25 -208.953125 C 161.675781 -200.703125 163.390625 -191.578125 163.390625 -181.578125 C 163.390625 -173.492188 161.957031 -165.632812 159.09375 -158 C 156.226562 -150.363281 152.519531 -142.894531 147.96875 -135.59375 C 143.425781 -128.289062 138.265625 -121.210938 132.484375 -114.359375 C 126.703125 -107.515625 120.945312 -100.835938 115.21875 -94.328125 L 46.65625 -17.015625 L 175.6875 -17.015625 Z M 175.6875 0 "/></g></g><g transform="translate(449.989663, 755.506248)"><g><path d="M 145.359375 -247.109375 L 145.359375 -228.75 L 142.328125 -228.75 C 125.929688 -228.632812 111.835938 -225.878906 100.046875 -220.484375 C 88.265625 -215.097656 78.5 -207.882812 70.75 -198.84375 C 63 -189.800781 57.101562 -179.328125 53.0625 -167.421875 C 49.019531 -155.523438 46.601562 -143.117188 45.8125 -130.203125 C 48.957031 -134.691406 52.71875 -138.84375 57.09375 -142.65625 C 61.476562 -146.476562 66.28125 -149.738281 71.5 -152.4375 C 76.726562 -155.132812 82.316406 -157.238281 88.265625 -158.75 C 94.210938 -160.269531 100.332031 -161.03125 106.625 -161.03125 C 118.414062 -161.03125 128.71875 -158.753906 137.53125 -154.203125 C 146.34375 -149.660156 153.695312 -143.65625 159.59375 -136.1875 C 165.488281 -128.71875 169.894531 -120.125 172.8125 -110.40625 C 175.738281 -100.695312 177.203125 -90.675781 177.203125 -80.34375 C 177.203125 -69.5625 175.65625 -59.144531 172.5625 -49.09375 C 169.476562 -39.050781 164.875 -30.15625 158.75 -22.40625 C 152.632812 -14.65625 145.054688 -8.421875 136.015625 -3.703125 C 126.972656 1.015625 116.503906 3.375 104.609375 3.375 C 91.804688 3.375 80.488281 0.820312 70.65625 -4.28125 C 60.832031 -9.394531 52.550781 -16.132812 45.8125 -24.5 C 39.070312 -32.875 33.960938 -42.445312 30.484375 -53.21875 C 27.003906 -64 25.207031 -75.117188 25.09375 -86.578125 L 25.09375 -108.3125 C 25.09375 -119.988281 25.988281 -131.523438 27.78125 -142.921875 C 29.582031 -154.316406 32.390625 -165.125 36.203125 -175.34375 C 40.023438 -185.5625 44.96875 -195.050781 51.03125 -203.8125 C 57.101562 -212.570312 64.460938 -220.125 73.109375 -226.46875 C 81.753906 -232.8125 91.800781 -237.804688 103.25 -241.453125 C 114.707031 -245.109375 127.734375 -246.992188 142.328125 -247.109375 Z M 103.421875 -143.6875 C 97.023438 -143.6875 90.765625 -142.671875 84.640625 -140.640625 C 78.523438 -138.617188 72.882812 -135.8125 67.71875 -132.21875 C 62.550781 -128.632812 58.03125 -124.285156 54.15625 -119.171875 C 50.28125 -114.066406 47.390625 -108.425781 45.484375 -102.25 L 45.484375 -86.25 C 45.484375 -75.6875 46.941406 -65.941406 49.859375 -57.015625 C 52.773438 -48.085938 56.84375 -40.421875 62.0625 -34.015625 C 67.289062 -27.617188 73.523438 -22.625 80.765625 -19.03125 C 88.003906 -15.4375 95.953125 -13.695312 104.609375 -13.8125 C 113.140625 -13.8125 120.6875 -15.660156 127.25 -19.359375 C 133.820312 -23.066406 139.328125 -27.984375 143.765625 -34.109375 C 148.203125 -40.234375 151.570312 -47.253906 153.875 -55.171875 C 156.175781 -63.085938 157.328125 -71.253906 157.328125 -79.671875 C 157.328125 -88.097656 156.175781 -96.15625 153.875 -103.84375 C 151.570312 -111.53125 148.144531 -118.320312 143.59375 -124.21875 C 139.050781 -130.113281 133.4375 -134.832031 126.75 -138.375 C 120.070312 -141.914062 112.296875 -143.6875 103.421875 -143.6875 Z M 103.421875 -143.6875 "/></g></g></g></svg>