<?xml version="1.0" encoding="UTF-8"?>
<svg id="Ebene_1" xmlns="http://www.w3.org/2000/svg" version="1.1" viewBox="0 0 593.05 100.74">
  <!-- Generator: Adobe Illustrator 30.1.0, SVG Export Plug-In . SVG Version: 2.1.1 Build 136)  -->
  <path d="M2.52,49.67c0-2.47.27-4.71.81-6.72.54-2.01,1.37-3.72,2.49-5.14s2.52-2.52,4.23-3.29c1.7-.77,3.72-1.16,6.04-1.16,1.65,0,3.17.23,4.55.68,1.38.45,2.58,1.12,3.6,1.99s1.84,1.92,2.47,3.16c.62,1.24.98,2.61,1.07,4.13h-5.94c-.34-3.29-2.4-4.93-6.18-4.93-2.01,0-3.64.58-4.89,1.74s-1.87,2.71-1.87,4.66v9.51c0,.94.17,1.8.52,2.6s.83,1.48,1.44,2.05c.61.57,1.33,1.02,2.15,1.34.83.32,1.73.48,2.71.48,2.01,0,3.61-.5,4.81-1.51,1.2-1,1.8-2.58,1.8-4.74v-1.34h-6.38v-5.02h12.34v16.96h-5.53l-.13-2.83c-1.59,2.35-4.08,3.53-7.45,3.53-2.1,0-3.94-.41-5.52-1.22-1.58-.81-2.9-1.93-3.96-3.36-1.06-1.43-1.85-3.13-2.38-5.1-.53-1.97-.79-4.12-.79-6.46Z"/>
  <path d="M34.77,65.11v-31.08h5.71v31.08h-5.71Z"/>
  <path d="M46.3,53.46c0-1.83.25-3.49.74-4.99s1.2-2.78,2.13-3.86c.93-1.08,2.07-1.91,3.42-2.49,1.35-.58,2.9-.87,4.64-.87s3.29.29,4.65.87c1.35.58,2.5,1.41,3.43,2.49.93,1.08,1.64,2.37,2.12,3.86.48,1.5.73,3.16.73,4.99s-.24,3.49-.73,4.98c-.48,1.49-1.19,2.77-2.12,3.86-.93,1.09-2.07,1.92-3.43,2.5-1.36.58-2.9.87-4.65.87s-3.28-.29-4.64-.87c-1.35-.58-2.49-1.41-3.42-2.5-.93-1.09-1.64-2.37-2.13-3.86s-.74-3.15-.74-4.98ZM52.24,56.83c0,1.4.47,2.48,1.42,3.25.95.77,2.14,1.15,3.57,1.15s2.62-.37,3.57-1.12c.95-.74,1.42-1.84,1.42-3.28v-6.76c0-1.43-.47-2.51-1.42-3.26-.95-.74-2.14-1.12-3.57-1.12s-2.62.38-3.57,1.14-1.42,1.84-1.42,3.24v6.76Z"/>
  <path d="M74,65.11v-31.08h5.71v10.93c.73-1.16,1.65-2.07,2.78-2.72,1.12-.65,2.47-.98,4.03-.98s2.9.32,4.06.96c1.16.64,2.12,1.51,2.88,2.6.76,1.09,1.32,2.39,1.69,3.88.36,1.5.55,3.08.55,4.76s-.18,3.3-.55,4.78c-.36,1.47-.93,2.76-1.69,3.86-.76,1.1-1.72,1.97-2.88,2.61-1.16.64-2.51.96-4.06.96s-2.89-.33-4.02-.98-2.06-1.56-2.79-2.72v3.15h-5.71ZM79.71,55.21c0,1.83.42,3.29,1.25,4.38.83,1.09,2.16,1.64,3.99,1.64,1.49,0,2.66-.41,3.51-1.22s1.28-1.9,1.28-3.27v-6.58c0-1.37-.42-2.45-1.27-3.26-.85-.8-2.02-1.21-3.53-1.21-1.83,0-3.16.55-3.99,1.64-.83,1.09-1.25,2.55-1.25,4.38v3.48Z"/>
  <path d="M100.15,58.49c0-1.89.65-3.52,1.96-4.89,1.31-1.37,3.2-2.16,5.67-2.39l6.45-.54v-1.52c0-1.22-.33-2.1-.98-2.64-.65-.54-1.55-.81-2.68-.81s-2.11.28-2.83.84c-.73.56-1.09,1.37-1.09,2.44h-5.71c.03-1.28.3-2.4.83-3.36.52-.96,1.21-1.76,2.08-2.4s1.89-1.13,3.08-1.46c1.19-.33,2.48-.5,3.88-.5,2.8,0,5.01.68,6.63,2.03,1.62,1.35,2.43,3.34,2.43,5.96v11.42h3.93v4.44h-8.99l-.04-3.62h-.2c-.67,1.28-1.56,2.29-2.67,3.05s-2.56,1.13-4.36,1.13c-1.07,0-2.05-.18-2.93-.54-.89-.36-1.66-.86-2.33-1.5s-1.19-1.39-1.55-2.25c-.36-.86-.55-1.83-.55-2.9ZM106.08,59.14c0,.7.32,1.22.96,1.57.64.35,1.47.52,2.48.52,1.46,0,2.61-.52,3.45-1.55.84-1.03,1.26-2.28,1.26-3.75v-.91l-6.85.6c-.85.09-1.28.59-1.3,1.51v2Z"/>
  <path d="M127.75,65.11v-31.08h5.71v31.08h-5.71Z"/>
  <path d="M152.03,65.11v-31.08h10.51c4.91,0,8.44,1.29,10.59,3.86,2.15,2.57,3.22,6.47,3.22,11.69s-1.08,9.1-3.22,11.67c-2.15,2.57-5.68,3.86-10.59,3.86h-10.51ZM157.96,60.09h4.57c2.47,0,4.36-.49,5.67-1.46s1.96-2.5,1.96-4.59v-8.95c0-2.07-.65-3.59-1.96-4.56s-3.2-1.46-5.67-1.46h-4.57v21.02Z"/>
  <path d="M182.38,39.12v-5.09h5.89v5.09h-5.89ZM182.47,65.11v-23.3h5.71v23.3h-5.71Z"/>
  <path d="M194.05,53.46c0-1.68.19-3.27.56-4.76.37-1.5.94-2.79,1.69-3.88.76-1.09,1.72-1.96,2.87-2.6,1.16-.64,2.51-.96,4.05-.96s2.89.33,4.03.98,2.06,1.56,2.8,2.72v-3.15h5.71v22.94c0,1.58-.29,2.95-.87,4.11s-1.36,2.12-2.33,2.88c-.98.76-2.1,1.33-3.36,1.71-1.27.38-2.58.57-3.95.57s-2.65-.13-3.84-.38c-1.19-.25-2.24-.67-3.16-1.25-.91-.58-1.66-1.33-2.23-2.26-.57-.93-.96-2.06-1.15-3.4h5.69c.18.91.59,1.61,1.24,2.12.65.51,1.64.76,2.99.76.67,0,1.33-.07,1.97-.21.64-.14,1.2-.4,1.69-.78.48-.38.87-.9,1.16-1.57.29-.67.44-1.53.44-2.57v-2.5c-.73,1.16-1.64,2.07-2.74,2.72s-2.43.98-3.99.98-2.9-.32-4.05-.96c-1.16-.64-2.12-1.51-2.9-2.61-.77-1.1-1.35-2.39-1.74-3.87s-.58-3.07-.58-4.76ZM199.98,56.74c0,1.31.43,2.38,1.3,3.22.86.84,2.04,1.26,3.51,1.26,1.83,0,3.17-.55,4-1.65.83-1.1,1.25-2.56,1.25-4.37v-3.48c0-1.83-.42-3.29-1.25-4.38s-2.17-1.64-4-1.64c-1.49,0-2.67.42-3.52,1.25-.86.83-1.29,1.9-1.29,3.21v6.58Z"/>
  <path d="M222.7,39.12v-5.09h5.89v5.09h-5.89ZM222.79,65.11v-23.3h5.71v23.3h-5.71Z"/>
  <path d="M233.32,46.24v-4.42h4.62v-7.79h5.71v7.79h5.8v4.42h-5.8v14.44h5.8v4.44h-11.51v-18.88h-4.62Z"/>
  <path d="M253.47,58.49c0-1.89.65-3.52,1.96-4.89,1.31-1.37,3.2-2.16,5.67-2.39l6.45-.54v-1.52c0-1.22-.33-2.1-.98-2.64-.66-.54-1.55-.81-2.68-.81s-2.11.28-2.83.84c-.73.56-1.09,1.37-1.09,2.44h-5.71c.03-1.28.3-2.4.83-3.36.52-.96,1.21-1.76,2.08-2.4.86-.64,1.89-1.13,3.08-1.46,1.19-.33,2.48-.5,3.88-.5,2.8,0,5.01.68,6.63,2.03,1.62,1.35,2.43,3.34,2.43,5.96v11.42h3.93v4.44h-8.99l-.04-3.62h-.2c-.67,1.28-1.56,2.29-2.67,3.05s-2.56,1.13-4.36,1.13c-1.07,0-2.05-.18-2.93-.54-.88-.36-1.66-.86-2.33-1.5-.67-.64-1.19-1.39-1.55-2.25-.36-.86-.55-1.83-.55-2.9ZM259.41,59.14c0,.7.32,1.22.96,1.57.64.35,1.47.52,2.48.52,1.46,0,2.61-.52,3.45-1.55.84-1.03,1.26-2.28,1.26-3.75v-.91l-6.85.6c-.85.09-1.28.59-1.29,1.51v2Z"/>
  <path d="M281.07,65.11v-31.08h5.71v31.08h-5.71Z"/>
  <path d="M304.04,49.67c0-2.47.27-4.71.81-6.72.54-2.01,1.37-3.72,2.47-5.14s2.49-2.52,4.16-3.29,3.64-1.16,5.9-1.16c1.57,0,3.04.23,4.41.68,1.37.45,2.55,1.12,3.56,1.99s1.82,1.92,2.43,3.16c.61,1.24.96,2.61,1.05,4.13h-5.94c-.15-1.65-.73-2.89-1.75-3.7-1.02-.82-2.41-1.23-4.18-1.23-.94,0-1.81.15-2.62.46-.81.3-1.51.73-2.09,1.28-.58.55-1.03,1.22-1.35,2.01-.32.79-.48,1.67-.48,2.66v9.51c0,.94.17,1.8.52,2.6s.83,1.48,1.44,2.05c.61.57,1.32,1.02,2.13,1.34.81.32,1.69.48,2.62.48,1.85,0,3.28-.4,4.29-1.21,1.01-.8,1.66-2.12,1.96-3.95h5.94c-.24,1.8-.71,3.34-1.4,4.62-.7,1.28-1.58,2.33-2.65,3.15-1.07.82-2.3,1.43-3.7,1.83-1.4.4-2.9.6-4.52.6-2.26,0-4.2-.41-5.82-1.22-1.62-.81-2.97-1.93-4.04-3.36s-1.86-3.13-2.38-5.1c-.51-1.97-.77-4.12-.77-6.46Z"/>
  <path d="M333.62,53.46c0-1.83.25-3.49.74-4.99s1.2-2.78,2.13-3.86c.93-1.08,2.07-1.91,3.42-2.49,1.35-.58,2.9-.87,4.64-.87s3.29.29,4.65.87c1.36.58,2.5,1.41,3.43,2.49.93,1.08,1.64,2.37,2.12,3.86s.73,3.16.73,4.99-.24,3.49-.73,4.98-1.19,2.77-2.12,3.86-2.07,1.92-3.43,2.5-2.9.87-4.65.87-3.28-.29-4.64-.87c-1.35-.58-2.49-1.41-3.42-2.5-.93-1.09-1.64-2.37-2.13-3.86s-.74-3.15-.74-4.98ZM339.56,56.83c0,1.4.47,2.48,1.42,3.25.95.77,2.14,1.15,3.57,1.15s2.62-.37,3.57-1.12c.95-.74,1.42-1.84,1.42-3.28v-6.76c0-1.43-.47-2.51-1.42-3.26-.95-.74-2.14-1.12-3.57-1.12s-2.62.38-3.57,1.14c-.95.76-1.42,1.84-1.42,3.24v6.76Z"/>
  <path d="M361.32,65.11v-31.08h5.71v31.08h-5.71Z"/>
  <path d="M374.06,65.11v-31.08h5.71v31.08h-5.71Z"/>
  <path d="M385.37,58.49c0-1.89.65-3.52,1.96-4.89,1.31-1.37,3.2-2.16,5.67-2.39l6.45-.54v-1.52c0-1.22-.33-2.1-.98-2.64-.66-.54-1.55-.81-2.68-.81s-2.11.28-2.83.84c-.73.56-1.09,1.37-1.09,2.44h-5.71c.03-1.28.3-2.4.83-3.36.52-.96,1.21-1.76,2.08-2.4.86-.64,1.89-1.13,3.08-1.46,1.19-.33,2.48-.5,3.88-.5,2.8,0,5.01.68,6.63,2.03,1.62,1.35,2.43,3.34,2.43,5.96v11.42h3.93v4.44h-8.99l-.04-3.62h-.2c-.67,1.28-1.56,2.29-2.67,3.05s-2.56,1.13-4.36,1.13c-1.07,0-2.05-.18-2.93-.54-.88-.36-1.66-.86-2.33-1.5-.67-.64-1.19-1.39-1.55-2.25-.36-.86-.55-1.83-.55-2.9ZM391.31,59.14c0,.7.32,1.22.96,1.57.64.35,1.47.52,2.48.52,1.46,0,2.61-.52,3.45-1.55.84-1.03,1.26-2.28,1.26-3.75v-.91l-6.85.6c-.85.09-1.28.59-1.29,1.51v2Z"/>
  <path d="M412.97,65.11v-31.08h5.71v10.93c.73-1.16,1.65-2.07,2.78-2.72,1.12-.65,2.46-.98,4.03-.98s2.9.32,4.06.96c1.16.64,2.12,1.51,2.88,2.6.76,1.09,1.32,2.39,1.69,3.88.36,1.5.55,3.08.55,4.76s-.18,3.3-.55,4.78c-.37,1.47-.93,2.76-1.69,3.86-.76,1.1-1.72,1.97-2.88,2.61-1.16.64-2.51.96-4.06.96s-2.89-.33-4.02-.98c-1.13-.65-2.06-1.56-2.79-2.72v3.15h-5.71ZM418.69,55.21c0,1.83.42,3.29,1.25,4.38.83,1.09,2.17,1.64,3.99,1.64,1.49,0,2.66-.41,3.51-1.22s1.28-1.9,1.28-3.27v-6.58c0-1.37-.42-2.45-1.27-3.26-.85-.8-2.02-1.21-3.53-1.21-1.83,0-3.16.55-3.99,1.64s-1.25,2.55-1.25,4.38v3.48Z"/>
  <path d="M439.35,53.46c0-1.83.25-3.49.74-4.99s1.2-2.78,2.13-3.86c.93-1.08,2.07-1.91,3.42-2.49,1.35-.58,2.9-.87,4.64-.87s3.29.29,4.65.87c1.36.58,2.5,1.41,3.43,2.49.93,1.08,1.64,2.37,2.12,3.86s.73,3.16.73,4.99-.24,3.49-.73,4.98-1.19,2.77-2.12,3.86-2.07,1.92-3.43,2.5-2.9.87-4.65.87-3.28-.29-4.64-.87c-1.35-.58-2.49-1.41-3.42-2.5-.93-1.09-1.64-2.37-2.13-3.86s-.74-3.15-.74-4.98ZM445.29,56.83c0,1.4.47,2.48,1.42,3.25.95.77,2.14,1.15,3.57,1.15s2.62-.37,3.57-1.12c.95-.74,1.42-1.84,1.42-3.28v-6.76c0-1.43-.47-2.51-1.42-3.26-.95-.74-2.14-1.12-3.57-1.12s-2.62.38-3.57,1.14c-.95.76-1.42,1.84-1.42,3.24v6.76Z"/>
  <path d="M467.04,65.11v-23.3h13.01v4.46h-7.3v18.83h-5.71Z"/>
  <path d="M483.29,58.49c0-1.89.65-3.52,1.96-4.89,1.31-1.37,3.2-2.16,5.67-2.39l6.45-.54v-1.52c0-1.22-.33-2.1-.98-2.64-.66-.54-1.55-.81-2.68-.81s-2.11.28-2.83.84c-.73.56-1.09,1.37-1.09,2.44h-5.71c.03-1.28.3-2.4.83-3.36.52-.96,1.21-1.76,2.08-2.4.86-.64,1.89-1.13,3.08-1.46,1.19-.33,2.48-.5,3.88-.5,2.8,0,5.01.68,6.63,2.03,1.62,1.35,2.43,3.34,2.43,5.96v11.42h3.93v4.44h-8.99l-.04-3.62h-.2c-.67,1.28-1.56,2.29-2.67,3.05s-2.56,1.13-4.36,1.13c-1.07,0-2.05-.18-2.93-.54-.88-.36-1.66-.86-2.33-1.5-.67-.64-1.19-1.39-1.55-2.25-.36-.86-.55-1.83-.55-2.9ZM489.22,59.14c0,.7.32,1.22.96,1.57.64.35,1.47.52,2.48.52,1.46,0,2.61-.52,3.45-1.55.84-1.03,1.26-2.28,1.26-3.75v-.91l-6.85.6c-.85.09-1.28.59-1.29,1.51v2Z"/>
  <path d="M508.68,46.24v-4.42h4.62v-7.79h5.71v7.79h5.8v4.42h-5.8v14.44h5.8v4.44h-11.51v-18.88h-4.62Z"/>
  <path d="M530.17,39.12v-5.09h5.89v5.09h-5.89ZM530.26,65.11v-23.3h5.71v23.3h-5.71Z"/>
  <path d="M541.8,53.46c0-1.83.25-3.49.74-4.99s1.2-2.78,2.13-3.86c.93-1.08,2.07-1.91,3.42-2.49,1.35-.58,2.9-.87,4.64-.87s3.29.29,4.65.87c1.35.58,2.5,1.41,3.43,2.49.93,1.08,1.64,2.37,2.12,3.86.48,1.5.73,3.16.73,4.99s-.24,3.49-.73,4.98c-.48,1.49-1.19,2.77-2.12,3.86-.93,1.09-2.07,1.92-3.43,2.5-1.36.58-2.9.87-4.65.87s-3.28-.29-4.64-.87-2.49-1.41-3.42-2.5-1.64-2.37-2.13-3.86-.74-3.15-.74-4.98ZM547.73,56.83c0,1.4.47,2.48,1.42,3.25.95.77,2.14,1.15,3.57,1.15s2.62-.37,3.57-1.12c.95-.74,1.42-1.84,1.42-3.28v-6.76c0-1.43-.47-2.51-1.42-3.26-.95-.74-2.14-1.12-3.57-1.12s-2.62.38-3.57,1.14c-.95.76-1.42,1.84-1.42,3.24v6.76Z"/>
  <path d="M569.49,65.11v-23.3h5.71v3.37c.7-1.25,1.61-2.22,2.73-2.9,1.12-.68,2.51-1.03,4.16-1.03,2.62,0,4.54.76,5.78,2.29,1.23,1.53,1.85,3.63,1.85,6.3v15.26h-5.71v-14.86c0-1.37-.29-2.43-.87-3.19s-1.55-1.14-2.92-1.14c-1.58,0-2.81.52-3.69,1.57-.89,1.05-1.33,2.43-1.33,4.14v13.48h-5.71Z"/>
</svg>