<?xml version="1.0" encoding="UTF-8"?>
<!-- Generated by Pixelmator Pro 3.6.18 -->
<svg width="354" height="20" viewBox="0 0 354 20" xmlns="http://www.w3.org/2000/svg">
    <path id="Path" fill="#ffffff" stroke="none" d="M -0 0 L 1.49439 0 L 1.49439 20 L -0 20 Z"/>
    <path id="path1" fill="#b92d32" stroke="none" d="M 1.49439 0 L 8.85 0 L 8.85 20 L 1.49439 20 Z"/>
    <path id="path2" fill="#3f3b93" stroke="none" d="M 8.85 0 L 10.494531 0 L 10.494531 20 L 8.85 20 Z"/>
    <path id="path3" fill="#ffffff" stroke="none" d="M 10.494531 0 L 13.971855 0 L 13.971855 20 L 10.494531 20 Z"/>
    <path id="path4" fill="#b92d32" stroke="none" d="M 13.971855 0 L 17.700001 0 L 17.700001 20 L 13.971855 20 Z"/>
    <path id="path5" fill="#f8e83a" stroke="none" d="M 17.700001 0 L 20.68943 0 L 20.68943 20 L 17.700001 20 Z"/>
    <path id="path6" fill="#3f3b93" stroke="none" d="M 20.68943 0 L 23.56057 0 L 23.56057 20 L 20.68943 20 Z"/>
    <path id="path7" fill="#e03e32" stroke="none" d="M 23.56057 0 L 26.549999 0 L 26.549999 20 L 23.56057 20 Z"/>
    <path id="path8" fill="#e03e32" stroke="none" d="M 26.549999 0 L 32.733456 0 L 32.733456 20 L 26.549999 20 Z"/>
    <path id="path9" fill="#ffffff" stroke="none" d="M 32.733456 0 L 33.599682 0 L 33.599682 20 L 32.733456 20 Z"/>
    <path id="path10" fill="#000000" stroke="none" d="M 33.599682 0 L 35.400002 0 L 35.400002 20 L 33.599682 20 Z"/>
    <path id="path11" fill="#046a03" stroke="none" d="M 35.400002 0 L 38.947815 0 L 38.947815 20 L 35.400002 20 Z"/>
    <path id="path12" fill="#ffffff" stroke="none" d="M 38.947815 0 L 40.704987 0 L 40.704987 20 L 38.947815 20 Z"/>
    <path id="path13" fill="#b92d32" stroke="none" d="M 40.704987 0 L 43.991299 0 L 43.991299 20 L 40.704987 20 Z"/>
    <path id="path14" fill="#f8e83a" stroke="none" d="M 43.991299 0 L 44.25 0 L 44.25 20 L 43.991299 20 Z"/>
    <path id="path15" fill="#ffffff" stroke="none" d="M 44.25 0 L 49.532974 0 L 49.532974 20 L 44.25 20 Z"/>
    <path id="path16" fill="#f8e83a" stroke="none" d="M 49.532974 0 L 49.66964 0 L 49.66964 20 L 49.532974 20 Z"/>
    <path id="path17" fill="#eda331" stroke="none" d="M 49.66964 0 L 49.853645 0 L 49.853645 20 L 49.66964 20 Z"/>
    <path id="path18" fill="#3f3b93" stroke="none" d="M 49.853645 0 L 53.099998 0 L 53.099998 20 L 49.853645 20 Z"/>
    <path id="path19" fill="#24b53d" stroke="none" d="M 53.099998 0 L 56.044456 0 L 56.044456 20 L 53.099998 20 Z"/>
    <path id="path20" fill="#ffffff" stroke="none" d="M 56.044456 0 L 58.988911 0 L 58.988911 20 L 56.044456 20 Z"/>
    <path id="path21" fill="#0193cd" stroke="none" d="M 58.988911 0 L 61.950001 0 L 61.950001 20 L 58.988911 20 Z"/>
    <path id="path22" fill="#b92d32" stroke="none" d="M 61.950001 0 L 66.607765 0 L 66.607765 20 L 61.950001 20 Z"/>
    <path id="path23" fill="#b92d32" stroke="none" d="M 66.607765 0 L 66.73233 0 L 66.73233 20 L 66.607765 20 Z"/>
    <path id="path24" fill="#eda331" stroke="none" d="M 66.73233 0 L 70.800003 0 L 70.800003 20 L 66.73233 20 Z"/>
    <path id="path25" fill="#3f3b93" stroke="none" d="M 70.800003 0 L 73.317413 0 L 73.317413 20 L 70.800003 20 Z"/>
    <path id="path26" fill="#b92d32" stroke="none" d="M 73.317413 0 L 76.654892 0 L 76.654892 20 L 73.317413 20 Z"/>
    <path id="path27" fill="#ffffff" stroke="none" d="M 76.654892 0 L 79.650002 0 L 79.650002 20 L 76.654892 20 Z"/>
    <path id="path28" fill="#0193cd" stroke="none" d="M 79.650002 0 L 88.031242 0 L 88.031242 20 L 79.650002 20 Z"/>
    <path id="path29" fill="#ffffff" stroke="none" d="M 88.031242 0 L 88.5 0 L 88.5 20 L 88.031242 20 Z"/>
    <path id="path30" fill="#b92d32" stroke="none" d="M 88.5 0 L 90.248093 0 L 90.248093 20 L 88.5 20 Z"/>
    <path id="path31" fill="#ffffff" stroke="none" d="M 90.248093 0 L 90.462288 0 L 90.462288 20 L 90.248093 20 Z"/>
    <path id="path32" fill="#046a03" stroke="none" d="M 90.462288 0 L 94.463318 0 L 94.463318 20 L 90.462288 20 Z"/>
    <path id="path33" fill="#f8e83a" stroke="none" d="M 94.463318 0 L 97.349998 0 L 97.349998 20 L 94.463318 20 Z"/>
    <path id="path34" fill="#e03e32" stroke="none" d="M 97.349998 0 L 104.436913 0 L 104.436913 20 L 97.349998 20 Z"/>
    <path id="path35" fill="#ffffff" stroke="none" d="M 104.436913 0 L 106.199997 0 L 106.199997 20 L 104.436913 20 Z"/>
    <path id="path36" fill="#e03e32" stroke="none" d="M 106.199997 0 L 114.24247 0 L 114.24247 20 L 106.199997 20 Z"/>
    <path id="path37" fill="#ffffff" stroke="none" d="M 114.24247 0 L 115.050003 0 L 115.050003 20 L 114.24247 20 Z"/>
    <path id="path38" fill="#ffffff" stroke="none" d="M 115.050003 0 L 117.926262 0 L 117.926262 20 L 115.050003 20 Z"/>
    <path id="path39" fill="#3f3b93" stroke="none" d="M 117.926262 0 L 120.9076 0 L 120.9076 20 L 117.926262 20 Z"/>
    <path id="path40" fill="#e03e32" stroke="none" d="M 120.9076 0 L 123.900002 0 L 123.900002 20 L 120.9076 20 Z"/>
    <path id="path41" fill="#3f3b93" stroke="none" d="M 123.900002 0 L 130.095001 0 L 130.095001 20 L 123.900002 20 Z"/>
    <path id="path42" fill="#f8e83a" stroke="none" d="M 130.095001 0 L 132.75 0 L 132.75 20 L 130.095001 20 Z"/>
    <path id="path43" fill="#ffffff" stroke="none" d="M 132.75 0 L 135.75 0 L 135.75 20 L 132.75 20 Z"/>
    <path id="path44" fill="#3f3b93" stroke="none" d="M 135.75 0 L 138.129044 0 L 138.129044 20 L 135.75 20 Z"/>
    <path id="path45" fill="#e03e32" stroke="none" d="M 138.129044 0 L 141.600006 0 L 141.600006 20 L 138.129044 20 Z"/>
    <path id="path46" fill="#000000" stroke="none" d="M 141.600006 0 L 142.396194 0 L 142.396194 20 L 141.600006 20 Z"/>
    <path id="path47" fill="#eda331" stroke="none" d="M 142.396194 0 L 142.864075 0 L 142.864075 20 L 142.396194 20 Z"/>
    <path id="path48" fill="#046a03" stroke="none" d="M 142.864075 0 L 145.631989 0 L 145.631989 20 L 142.864075 20 Z"/>
    <path id="path49" fill="#ffffff" stroke="none" d="M 145.631989 0 L 146.692795 0 L 146.692795 20 L 145.631989 20 Z"/>
    <path id="path50" fill="#e03e32" stroke="none" d="M 146.692795 0 L 148.572327 0 L 148.572327 20 L 146.692795 20 Z"/>
    <path id="path51" fill="#3f3b93" stroke="none" d="M 148.572327 0 L 150.449997 0 L 150.449997 20 L 148.572327 20 Z"/>
    <path id="path52" fill="#046a03" stroke="none" d="M 150.449997 0 L 157.128922 0 L 157.128922 20 L 150.449997 20 Z"/>
    <path id="path53" fill="#e03e32" stroke="none" d="M 157.128922 0 L 157.805939 0 L 157.805939 20 L 157.128922 20 Z"/>
    <path id="path54" fill="#000000" stroke="none" d="M 157.805939 0 L 158.483459 0 L 158.483459 20 L 157.805939 20 Z"/>
    <path id="path55" fill="#eda331" stroke="none" d="M 158.483459 0 L 159.300003 0 L 159.300003 20 L 158.483459 20 Z"/>
    <path id="path56" fill="#046a03" stroke="none" d="M 159.300003 0 L 161.708252 0 L 161.708252 20 L 159.300003 20 Z"/>
    <path id="path57" fill="#f8e83a" stroke="none" d="M 161.708252 0 L 163.917068 0 L 163.917068 20 L 161.708252 20 Z"/>
    <path id="path58" fill="#e03e32" stroke="none" d="M 163.917068 0 L 165.921753 0 L 165.921753 20 L 163.917068 20 Z"/>
    <path id="path59" fill="#000000" stroke="none" d="M 165.921753 0 L 166.932129 0 L 166.932129 20 L 165.921753 20 Z"/>
    <path id="path60" fill="#ffffff" stroke="none" d="M 166.932129 0 L 168.149994 0 L 168.149994 20 L 166.932129 20 Z"/>
    <path id="path61" fill="#0193cd" stroke="none" d="M 168.149994 0 L 169.928162 0 L 169.928162 20 L 168.149994 20 Z"/>
    <path id="path62" fill="#f8e83a" stroke="none" d="M 169.928162 0 L 170.059631 0 L 170.059631 20 L 169.928162 20 Z"/>
    <path id="path63" fill="#000000" stroke="none" d="M 170.059631 0 L 172.377167 0 L 172.377167 20 L 170.059631 20 Z"/>
    <path id="path64" fill="#ffffff" stroke="none" d="M 172.377167 0 L 173.019455 0 L 173.019455 20 L 172.377167 20 Z"/>
    <path id="path65" fill="#e03e32" stroke="none" d="M 173.019455 0 L 174.682434 0 L 174.682434 20 L 173.019455 20 Z"/>
    <path id="path66" fill="#24b53d" stroke="none" d="M 174.682434 0 L 177 0 L 177 20 L 174.682434 20 Z"/>
    <path id="path67" fill="#046a03" stroke="none" d="M 177 0 L 178.473358 0 L 178.473358 20 L 177 20 Z"/>
    <path id="path68" fill="#e03e32" stroke="none" d="M 178.473358 0 L 181.102936 0 L 181.102936 20 L 178.473358 20 Z"/>
    <path id="path69" fill="#ffffff" stroke="none" d="M 181.102936 0 L 183.220428 0 L 183.220428 20 L 181.102936 20 Z"/>
    <path id="path70" fill="#000000" stroke="none" d="M 183.220428 0 L 185.850006 0 L 185.850006 20 L 183.220428 20 Z"/>
    <path id="path71" fill="#3f3b93" stroke="none" d="M 185.850006 0 L 190.274994 0 L 190.274994 20 L 185.850006 20 Z"/>
    <path id="path72" fill="#f8e83a" stroke="none" d="M 190.274994 0 L 194.699997 0 L 194.699997 20 L 190.274994 20 Z"/>
    <path id="path73" fill="#000000" stroke="none" d="M 194.699997 0 L 197.479919 0 L 197.479919 20 L 194.699997 20 Z"/>
    <path id="path74" fill="#f8e83a" stroke="none" d="M 197.479919 0 L 200.453033 0 L 200.453033 20 L 197.479919 20 Z"/>
    <path id="path75" fill="#e03e32" stroke="none" d="M 200.453033 0 L 203.212509 0 L 203.212509 20 L 200.453033 20 Z"/>
    <path id="path76" fill="#ffffff" stroke="none" d="M 203.212509 0 L 203.550003 0 L 203.550003 20 L 203.212509 20 Z"/>
    <path id="path77" fill="#24b53d" stroke="none" d="M 203.550003 0 L 206.137558 0 L 206.137558 20 L 203.550003 20 Z"/>
    <path id="path78" fill="#f8e83a" stroke="none" d="M 206.137558 0 L 207.165421 0 L 207.165421 20 L 206.137558 20 Z"/>
    <path id="path79" fill="#000000" stroke="none" d="M 207.165421 0 L 209.816696 0 L 209.816696 20 L 207.165421 20 Z"/>
    <path id="path80" fill="#0193cd" stroke="none" d="M 209.816696 0 L 212.399994 0 L 212.399994 20 L 209.816696 20 Z"/>
    <path id="path81" fill="#e03e32" stroke="none" d="M 212.399994 0 L 220.734024 0 L 220.734024 20 L 212.399994 20 Z"/>
    <path id="path82" fill="#ffffff" stroke="none" d="M 220.734024 0 L 221.25 0 L 221.25 20 L 220.734024 20 Z"/>
    <path id="path83" fill="#b92d32" stroke="none" d="M 221.25 0 L 224.203262 0 L 224.203262 20 L 221.25 20 Z"/>
    <path id="path84" fill="#ffffff" stroke="none" d="M 224.203262 0 L 226.887024 0 L 226.887024 20 L 224.203262 20 Z"/>
    <path id="path85" fill="#046a03" stroke="none" d="M 226.887024 0 L 227.130051 0 L 227.130051 20 L 226.887024 20 Z"/>
    <path id="path86" fill="#000000" stroke="none" d="M 227.130051 0 L 230.100006 0 L 230.100006 20 L 227.130051 20 Z"/>
    <path id="path87" fill="#0193cd" stroke="none" d="M 230.100006 0 L 238.574707 0 L 238.574707 20 L 230.100006 20 Z"/>
    <path id="path88" fill="#ffffff" stroke="none" d="M 238.574707 0 L 238.949997 0 L 238.949997 20 L 238.574707 20 Z"/>
    <path id="path89" fill="#e03e32" stroke="none" d="M 238.949997 0 L 241.894455 0 L 241.894455 20 L 238.949997 20 Z"/>
    <path id="path90" fill="#ffffff" stroke="none" d="M 241.894455 0 L 244.838913 0 L 244.838913 20 L 241.894455 20 Z"/>
    <path id="path91" fill="#000000" stroke="none" d="M 244.838913 0 L 247.800003 0 L 247.800003 20 L 244.838913 20 Z"/>
    <path id="path92" fill="#e03e32" stroke="none" d="M 247.800003 0 L 250.020828 0 L 250.020828 20 L 247.800003 20 Z"/>
    <path id="path93" fill="#046a03" stroke="none" d="M 250.020828 0 L 252.236099 0 L 252.236099 20 L 250.020828 20 Z"/>
    <path id="path94" fill="#ffffff" stroke="none" d="M 252.236099 0 L 254.434723 0 L 254.434723 20 L 252.236099 20 Z"/>
    <path id="path95" fill="#000000" stroke="none" d="M 254.434723 0 L 256.649994 0 L 256.649994 20 L 254.434723 20 Z"/>
    <path id="path96" fill="#046a03" stroke="none" d="M 256.649994 0 L 264.407776 0 L 264.407776 20 L 256.649994 20 Z"/>
    <path id="path97" fill="#e03e32" stroke="none" d="M 264.407776 0 L 265.164856 0 L 265.164856 20 L 264.407776 20 Z"/>
    <path id="path98" fill="#f8e83a" stroke="none" d="M 265.164856 0 L 265.380981 0 L 265.380981 20 L 265.164856 20 Z"/>
    <path id="path99" fill="#ffffff" stroke="none" d="M 265.380981 0 L 265.5 0 L 265.5 20 L 265.380981 20 Z"/>
    <path id="path100" fill="#0193cd" stroke="none" d="M 265.5 0 L 268.248413 0 L 268.248413 20 L 265.5 20 Z"/>
    <path id="path101" fill="#b92d32" stroke="none" d="M 268.248413 0 L 268.603912 0 L 268.603912 20 L 268.248413 20 Z"/>
    <path id="path102" fill="#ffffff" stroke="none" d="M 268.603912 0 L 271.506165 0 L 271.506165 20 L 268.603912 20 Z"/>
    <path id="path103" fill="#24b53d" stroke="none" d="M 271.506165 0 L 274.350006 0 L 274.350006 20 L 271.506165 20 Z"/>
    <path id="path104" fill="#e03e32" stroke="none" d="M 274.350006 0 L 276.900879 0 L 276.900879 20 L 274.350006 20 Z"/>
    <path id="path105" fill="#ffffff" stroke="none" d="M 276.900879 0 L 280.535492 0 L 280.535492 20 L 276.900879 20 Z"/>
    <path id="path106" fill="#f8e83a" stroke="none" d="M 280.535492 0 L 280.649139 0 L 280.649139 20 L 280.535492 20 Z"/>
    <path id="path107" fill="#046a03" stroke="none" d="M 280.649139 0 L 283.200012 0 L 283.200012 20 L 280.649139 20 Z"/>
    <path id="path108" fill="#eda331" stroke="none" d="M 283.200012 0 L 287.205261 0 L 287.205261 20 L 283.200012 20 Z"/>
    <path id="path109" fill="#046a03" stroke="none" d="M 287.205261 0 L 288.178009 0 L 288.178009 20 L 287.205261 20 Z"/>
    <path id="path110" fill="#eda331" stroke="none" d="M 288.178009 0 L 289.150726 0 L 289.150726 20 L 288.178009 20 Z"/>
    <path id="path111" fill="#b92d32" stroke="none" d="M 289.150726 0 L 292.049988 0 L 292.049988 20 L 289.150726 20 Z"/>
    <path id="path112" fill="#b92d32" stroke="none" d="M 292.049988 0 L 294.994415 0 L 294.994415 20 L 292.049988 20 Z"/>
    <path id="path113" fill="#ffffff" stroke="none" d="M 294.994415 0 L 297.938843 0 L 297.938843 20 L 294.994415 20 Z"/>
    <path id="path114" fill="#3f3b93" stroke="none" d="M 297.938843 0 L 300.899994 0 L 300.899994 20 L 297.938843 20 Z"/>
    <path id="path115" fill="#e03e32" stroke="none" d="M 300.899994 0 L 305.060547 0 L 305.060547 20 L 300.899994 20 Z"/>
    <path id="path116" fill="#ffffff" stroke="none" d="M 305.060547 0 L 309.75 0 L 309.75 20 L 305.060547 20 Z"/>
    <path id="path117" fill="#e03e32" stroke="none" d="M 309.75 0 L 318.016785 0 L 318.016785 20 L 309.75 20 Z"/>
    <path id="path118" fill="#f8e83a" stroke="none" d="M 318.016785 0 L 318.600006 0 L 318.600006 20 L 318.016785 20 Z"/>
    <path id="path119" fill="#000000" stroke="none" d="M 318.600006 0 L 319.927124 0 L 319.927124 20 L 318.600006 20 Z"/>
    <path id="path120" fill="#ffffff" stroke="none" d="M 319.927124 0 L 320.057831 0 L 320.057831 20 L 319.927124 20 Z"/>
    <path id="path121" fill="#f8e83a" stroke="none" d="M 320.057831 0 L 320.778259 0 L 320.778259 20 L 320.057831 20 Z"/>
    <path id="path122" fill="#e03e32" stroke="none" d="M 320.778259 0 L 327.450012 0 L 327.450012 20 L 320.778259 20 Z"/>
    <path id="path123" fill="#3f3b93" stroke="none" d="M 327.450012 0 L 331.195892 0 L 331.195892 20 L 327.450012 20 Z"/>
    <path id="path124" fill="#ffffff" stroke="none" d="M 331.195892 0 L 331.424561 0 L 331.424561 20 L 331.195892 20 Z"/>
    <path id="path125" fill="#f8e83a" stroke="none" d="M 331.424561 0 L 332.277069 0 L 332.277069 20 L 331.424561 20 Z"/>
    <path id="path126" fill="#046a03" stroke="none" d="M 332.277069 0 L 336.299988 0 L 336.299988 20 L 332.277069 20 Z"/>
    <path id="path127" fill="#000000" stroke="none" d="M 336.299988 0 L 338.656891 0 L 338.656891 20 L 336.299988 20 Z"/>
    <path id="path128" fill="#f8e83a" stroke="none" d="M 338.656891 0 L 339.536591 0 L 339.536591 20 L 338.656891 20 Z"/>
    <path id="path129" fill="#e03e32" stroke="none" d="M 339.536591 0 L 342.343292 0 L 342.343292 20 L 339.536591 20 Z"/>
    <path id="path130" fill="#24b53d" stroke="none" d="M 342.343292 0 L 345.149994 0 L 345.149994 20 L 342.343292 20 Z"/>
    <path id="path131" fill="#3f3b93" stroke="none" d="M 345.149994 0 L 345.764191 0 L 345.764191 20 L 345.149994 20 Z"/>
    <path id="path132" fill="#b92d32" stroke="none" d="M 345.764191 0 L 346.585236 0 L 346.585236 20 L 345.764191 20 Z"/>
    <path id="path133" fill="#ffffff" stroke="none" d="M 346.585236 0 L 347.313629 0 L 347.313629 20 L 346.585236 20 Z"/>
    <path id="path134" fill="#0193cd" stroke="none" d="M 347.313629 0 L 353.687775 0 L 353.687775 20 L 347.313629 20 Z"/>
    <path id="path135" fill="#f8e83a" stroke="none" d="M 353.687775 0 L 354 0 L 354 20 L 353.687775 20 Z"/>
</svg>
