<svg id="Ebene_2" data-name="Ebene 2" xmlns="http://www.w3.org/2000/svg" viewBox="0 0 21.3 23.59"><defs><style>.cls-1{fill:red;}.cls-2{fill:#fff;}</style></defs><path class="cls-1" d="M22,2.46A28.67,28.67,0,0,0,11.4.72h0A28.7,28.7,0,0,0,.78,2.46s-.35,7.7,1.15,12.05a16.09,16.09,0,0,0,9.46,9.8h0a16.09,16.09,0,0,0,9.46-9.8C22.37,10.16,22,2.46,22,2.46Z" transform="translate(-0.74 -0.72)"/><polygon class="cls-2" points="17.71 8.37 17.71 12.61 12.76 12.61 12.76 17.56 8.52 17.56 8.52 12.61 3.57 12.61 3.57 8.37 8.52 8.37 8.52 3.43 12.76 3.43 12.76 8.37 17.71 8.37"/></svg>